<svg width="225" height="182" viewBox="0 0 225 182" fill="none" xmlns="http://www.w3.org/2000/svg">
<path d="M66.4892 164.385V150.385H69.8892V164.385H66.4892ZM55.7892 164.385V150.385H59.1892V164.385H55.7892ZM57.1092 158.985L57.1492 155.945H68.2892V158.985H57.1092ZM81.7888 164.585C80.4421 164.585 79.2488 164.352 78.2088 163.885C77.1688 163.405 76.3554 162.752 75.7688 161.925C75.1954 161.085 74.9088 160.132 74.9088 159.065C74.9088 157.985 75.1954 157.032 75.7688 156.205C76.3554 155.379 77.1688 154.732 78.2088 154.265C79.2488 153.785 80.4421 153.545 81.7888 153.545C83.1488 153.545 84.3421 153.785 85.3688 154.265C86.3954 154.732 87.2021 155.379 87.7888 156.205C88.3754 157.032 88.6688 157.985 88.6688 159.065C88.6688 160.132 88.3754 161.085 87.7888 161.925C87.2021 162.752 86.3954 163.405 85.3688 163.885C84.3421 164.352 83.1488 164.585 81.7888 164.585ZM81.8088 161.825C82.4888 161.825 83.0954 161.712 83.6288 161.485C84.1754 161.245 84.6154 160.919 84.9488 160.505C85.2821 160.092 85.4354 159.612 85.4088 159.065C85.4354 158.519 85.2821 158.039 84.9488 157.625C84.6154 157.199 84.1754 156.872 83.6288 156.645C83.0954 156.405 82.4888 156.285 81.8088 156.285C81.1288 156.285 80.5088 156.405 79.9488 156.645C79.3888 156.872 78.9488 157.199 78.6288 157.625C78.3088 158.039 78.1554 158.519 78.1688 159.065C78.1554 159.612 78.3088 160.092 78.6288 160.505C78.9488 160.919 79.3888 161.245 79.9488 161.485C80.5088 161.712 81.1288 161.825 81.8088 161.825ZM98.3398 164.605C97.4332 164.605 96.6398 164.405 95.9598 164.005C95.2932 163.605 94.7798 163.019 94.4198 162.245C94.0598 161.472 93.8798 160.545 93.8798 159.465V153.765H97.0798V158.885C97.0798 159.512 97.1665 160.039 97.3398 160.465C97.5132 160.892 97.7865 161.219 98.1598 161.445C98.5332 161.659 99.0065 161.765 99.5798 161.765C99.9798 161.765 100.353 161.705 100.7 161.585C101.047 161.452 101.353 161.272 101.62 161.045C101.9 160.819 102.113 160.539 102.26 160.205C102.42 159.872 102.5 159.505 102.5 159.105V153.765H105.7V164.385H102.7L102.56 162.205L103.14 161.965C102.98 162.405 102.68 162.832 102.24 163.245C101.8 163.645 101.247 163.972 100.58 164.225C99.9265 164.479 99.1798 164.605 98.3398 164.605ZM112.382 164.385V153.765H115.442L115.582 157.605L114.662 157.425C114.875 156.705 115.215 156.052 115.682 155.465C116.148 154.879 116.702 154.412 117.342 154.065C117.982 153.719 118.655 153.545 119.362 153.545C119.775 153.545 120.182 153.592 120.582 153.685C120.982 153.765 121.315 153.879 121.582 154.025L120.722 157.485C120.482 157.312 120.148 157.179 119.722 157.085C119.308 156.992 118.895 156.945 118.482 156.945C118.028 156.945 117.615 157.019 117.242 157.165C116.882 157.299 116.575 157.492 116.322 157.745C116.082 157.985 115.902 158.259 115.782 158.565C115.662 158.859 115.602 159.172 115.602 159.505V164.385H112.382ZM131.157 164.585C129.863 164.585 128.703 164.419 127.677 164.085C126.65 163.752 125.823 163.259 125.197 162.605L127.137 160.845C127.617 161.285 128.21 161.632 128.917 161.885C129.637 162.125 130.43 162.245 131.297 162.245C131.55 162.245 131.797 162.232 132.037 162.205C132.29 162.165 132.517 162.112 132.717 162.045C132.917 161.979 133.077 161.885 133.197 161.765C133.33 161.645 133.397 161.505 133.397 161.345C133.397 161.079 133.19 160.879 132.777 160.745C132.51 160.639 132.17 160.552 131.757 160.485C131.343 160.419 130.917 160.359 130.477 160.305C129.663 160.159 128.943 160.005 128.317 159.845C127.69 159.672 127.157 159.439 126.717 159.145C126.357 158.879 126.07 158.565 125.857 158.205C125.643 157.832 125.537 157.379 125.537 156.845C125.537 156.325 125.683 155.865 125.977 155.465C126.27 155.065 126.663 154.719 127.157 154.425C127.65 154.132 128.217 153.912 128.857 153.765C129.51 153.619 130.197 153.545 130.917 153.545C131.583 153.545 132.257 153.605 132.937 153.725C133.617 153.845 134.263 154.025 134.877 154.265C135.49 154.492 136.03 154.792 136.497 155.165L134.877 157.125C134.557 156.899 134.17 156.685 133.717 156.485C133.263 156.285 132.77 156.132 132.237 156.025C131.717 155.905 131.19 155.845 130.657 155.845C130.403 155.845 130.157 155.859 129.917 155.885C129.69 155.912 129.477 155.959 129.277 156.025C129.077 156.079 128.917 156.165 128.797 156.285C128.69 156.392 128.637 156.519 128.637 156.665C128.637 156.772 128.67 156.872 128.737 156.965C128.803 157.045 128.897 157.125 129.017 157.205C129.243 157.339 129.577 157.452 130.017 157.545C130.47 157.639 130.977 157.732 131.537 157.825C132.51 157.999 133.337 158.192 134.017 158.405C134.697 158.619 135.237 158.885 135.637 159.205C135.957 159.445 136.19 159.719 136.337 160.025C136.497 160.332 136.577 160.679 136.577 161.065C136.577 161.772 136.343 162.392 135.877 162.925C135.423 163.445 134.79 163.852 133.977 164.145C133.163 164.439 132.223 164.585 131.157 164.585Z" fill="black"/>
<path d="M111.549 16.6162C102.533 16.6162 96.0002 17.6356 90.7656 26.1418C86.8803 32.4555 80.184 40.5212 84.7039 48.6569C90.8577 59.7339 132.54 65.2795 133.968 50.2926C134.506 44.6391 134.975 38.0673 130.6 33.9355C128.233 31.7003 124.523 31.8452 122.325 30.0868C117.12 25.9226 97.1628 27.7383 91.5354 30.4716C83.304 34.4697 83.251 48.2581 90.7656 51.6397C104.013 57.601 116.313 56.6904 131.177 56.4506C144.87 56.2298 139.608 32.5514 133.198 26.1418C123.108 16.0518 99.9922 18.3481 87.4942 18.3481C80.0495 18.3481 74.3702 18.2881 73.5425 27.3927C72.7287 36.3447 72.3536 47.5478 74.4085 56.3544C76.4169 64.9618 99.5138 87.3445 108.951 77.9073C114.186 72.6722 118.533 65.6414 123.287 59.9145C128.292 53.8865 136.02 47.6555 135.796 39.1313C135.327 21.3091 115.535 23.3912 103.466 23.5439C89.3946 23.722 51.662 32.0458 69.0203 53.3716C80.7479 67.7799 111.241 76.1412 128.098 70.3061C134.472 68.0999 136.691 59.6276 137.528 53.5641C139.041 42.591 140.069 36.8721 131.562 28.9322C121.353 19.4039 88.6347 21.4138 80.4703 32.2998C74.8985 39.7289 75.7341 58.6326 87.5904 59.8183C105.432 61.6024 127.332 64.1202 130.408 41.8254C133.851 16.8584 116.42 11.4575 95.769 21.4271C82.2846 27.9368 65.6599 52.0733 85.9547 59.9145C96.079 63.8262 109.253 61.7708 119.824 61.6464C130.518 61.5206 140.541 60.6929 142.339 48.5607C145.681 25.9988 118.854 23.6312 103.659 27.0078C92.881 29.4029 60.1464 59.6097 83.9341 66.746C102.355 72.2721 132.43 70.9514 133.968 47.1174C135.828 18.2898 97.4545 18.8498 78.2572 23.7364C70.001 25.8379 40.5702 43.7284 64.5942 50.1964C75.7911 53.211 102.938 34.2924 95.1917 21.0422C91.2553 14.3089 61.3462 48.4989 61.7077 56.4506C62.3737 71.1031 137.586 72.6827 126.078 34.3204C122.199 21.3902 102.205 20.4767 91.7278 23.7364C60.7029 33.3885 71.1219 88.0989 102.6 66.4573C113.657 58.8557 119.154 42.373 116.36 29.7981C112.094 10.6015 86.8186 15.4474 75.4669 25.8532C68.2282 32.4886 57.7866 53.7173 72.003 59.0485C85.0166 63.9286 104.85 63.6322 117.611 58.7599C130.657 53.7783 140.438 42.4495 133.294 28.1624C125.281 12.1353 96.6545 13.6207 82.6833 17.3859C70.019 20.799 51.1674 33.2973 50.9312 48.1758C50.7114 62.0232 57.5293 69.9914 72.2917 67.8044C86.992 65.6266 112.792 59.9101 120.208 45.2893C128.264 29.4091 118.896 14.0306 100.195 17.7708C87.3653 20.3368 72.7445 38.4295 84.6076 50.2926C93.3802 59.0652 115.753 64.5479 125.789 55.296C134.547 47.2227 136.771 31.1883 121.652 29.0284C106.345 26.8417 93.5935 33.848 87.4942 48.0796C83.7503 56.8153 79.679 78.855 96.0576 69.9212C106.559 64.1931 116.507 54.8543 122.614 44.5195C136.571 20.9001 71.5575 16.5409 77.295 50.9662C80.2704 68.8183 150.94 48.891 133.006 18.5406C123.787 2.94001 99.3159 17.2387 91.3429 25.8532C86.1244 31.4916 75.9773 50.6516 84.2228 57.7977C93.1014 65.4925 109.157 57.867 115.205 50.6775C126.2 37.6083 121.975 22.8446 103.851 22.0044C93.1266 21.5073 82.6233 25.6765 76.1404 34.3204C72.1966 39.5789 65.3598 50.0494 68.6354 57.0279C74.2789 69.051 113.4 59.9877 121.363 55.1036C131.125 49.1164 128.536 30.7901 118.092 27.3927C98.1363 20.9011 69.4678 29.6835 63.0547 51.2548C52.952 85.2366 109.624 75.4641 109.624 45.0006C109.624 35.5727 99.9009 20.0846 88.9375 29.2208C82.484 34.5987 79.9723 44.3078 80.7589 52.4095C81.6861 61.9599 91.7523 62.8543 99.5215 63.0897C109.812 63.4015 131.669 60.4963 126.848 44.4233C122.752 30.7724 94.7648 39.7588 90.8618 50.004C85.3566 64.4553 85.1368 78.229 103.37 80.3128C117.583 81.937 126.156 68.4024 126.655 55.6809C127.972 22.0906 67.9259 40.4869 75.948 67.2271C81.1446 84.5492 106.059 68.0363 111.549 60.1069C114.696 55.5606 122.175 44.2089 119.246 38.1691C114.845 29.092 101.151 26.7688 92.4976 28.9322C71.6228 34.1508 47.6229 53.599 60.3606 77.6187C71.3815 98.4009 96.2269 69.963 104.044 60.1069C111.569 50.6181 119.069 34.9932 102.889 31.2414C90.7392 28.424 79.7912 37.8744 77.295 49.5229C73.8196 65.7415 101.38 58.0357 109.047 55.1998C116.961 52.2726 133.949 46.5356 136.95 37.3994C140.158 27.6378 122.073 28.9625 117.995 29.317C98.5501 31.0079 84.022 42.1001 75.2745 59.0485C71.7324 65.9112 71.8942 87.2027 85.0887 80.7939C96.6408 75.1829 114.718 50.9907 108.277 36.8221C100.531 19.7792 72.2525 31.5868 64.9791 42.1141C50.0644 63.7011 64.7942 68.9166 83.7417 74.7321C103.406 80.7677 132.883 89.2898 133.968 60.0107C134.425 47.6621 129.891 40.6442 117.322 39.5162C101.477 38.0942 91.0887 44.2998 81.3362 56.2582C76.7452 61.8876 59.7155 85.2486 73.2539 90.7044C87.5747 96.4755 99.2107 87.3872 106.353 75.117C113.648 62.5854 115.317 43.0529 111.164 29.317C107.182 16.1455 87.7554 21.9795 81.1438 29.5095C66.8957 45.7364 83.5636 50.1642 98.4631 50.87C104.252 51.1442 174.069 56.7471 167.933 38.7464C165.243 30.8577 147.688 33.9355 142.435 33.9355C128.452 33.9355 114.151 33.1492 100.195 34.3204C94.4258 34.8045 59.1055 42.9214 72.869 54.7187C80.1978 61.0005 89.9261 61.6464 99.0404 61.6464C114.369 61.6464 141.808 66.2231 150.613 49.9078C164.552 24.0798 96.4085 22.0172 87.6866 47.2137C82.6721 61.7 87.1785 69.7855 102.119 71.6531C116.667 73.4716 137.506 74.6457 151.191 69.9212C161.296 66.4324 161.467 51.3208 157.253 43.5574C149.679 29.6062 126.444 28.5747 112.607 29.0284C71.3137 30.3823 93.3306 84.845 116.552 63.2821C122.5 57.7589 129.06 46.5179 127.81 38.2653C124.891 18.9987 93.8246 26.0372 82.6833 31.4338C71.9506 36.6325 60.3475 51.1395 68.8278 63.4746C76.3514 74.418 97.2674 87.9577 110.49 79.543C120.676 73.0614 118.727 57.7916 118.477 47.4061C118.036 29.1074 104.382 26.6442 88.4564 33.9355C74.1089 40.5042 78.8845 59.9413 90.9581 65.4952C104.644 71.7909 139.168 85.2392 150.998 68.1893C158.856 56.8653 149.318 40.6861 137.528 38.1691C125.503 35.6019 111.964 35.6868 99.8102 36.0523C87.0879 36.4349 66.8336 36.1563 58.6287 48.3683C51.2744 59.3142 66.5812 70.3687 73.0614 76.8489C85.2999 89.0874 98.2275 97.9195 115.975 99.364C128.621 100.393 127.136 87.3537 127.136 78.0035C127.136 59.5864 129.212 39.9334 124.346 22.0044C120.226 6.82677 114.455 0.374196 100.195 9.8809C88.9096 17.4046 74.7904 28.0905 70.9446 41.8254C61.0963 76.9979 109.937 69.1413 129.542 65.0141C142.312 62.3256 153.338 51.5965 144.263 38.3616C136.655 27.2666 124.282 23.7364 111.26 23.7364C95.9369 23.7364 70.5331 30.9777 65.1715 47.5985C59.2252 66.032 62.6921 94.3878 71.3295 111.295C79.4713 127.232 105.512 110.178 116.745 106.677C133.924 101.322 148.549 84.9718 155.424 68.7666C169.402 35.8196 109.729 37.6082 92.3051 40.8632C82.1345 42.7632 76.0385 55.4488 83.2606 64.1481C92.1813 74.8935 100.734 77.9037 114.243 77.2338C134.831 76.2129 164.004 66.0033 168.895 42.8838C172.915 23.8823 146.843 25.2759 135.026 25.2759C116.877 25.2759 87.2159 31.4989 80.5665 51.4473C76.1893 64.5788 82.0531 69.3429 92.4976 76.4641C105.002 84.99 117.839 91.4606 133.679 90.8006C152.571 90.0134 149.739 69.4062 141.858 57.4128C125.832 33.0265 81.6096 58.3995 83.9341 83.9691C85.713 103.537 116.715 76.8695 118.092 65.6876C120.924 42.6717 93.7983 42.9438 77.295 44.712C62.3694 46.3111 48.3633 53.0454 51.3161 69.1515C52.7802 77.1374 63.8905 81.8286 71.1371 79.9279C84.8958 76.3191 89.1937 59.8553 89.0337 47.2137C88.5822 11.5447 16.332 65.3278 50.1614 86.8556C60.9567 93.7253 81.3193 96.6561 93.8446 98.4981C107.043 100.439 106.353 82.2407 106.353 73.8662C106.353 60.1244 104.031 55.0145 88.5526 56.8355C68.686 59.1727 54.7714 73.1487 58.8211 93.9758C63.8362 119.768 132.857 87.239 138.105 71.8456C150.181 36.4236 101.108 26.5489 90.8618 58.5674C87.6251 68.6823 82.6436 87.0858 93.556 94.3607C102.553 100.359 114.421 100.447 122.421 92.9174C138.658 77.6362 126.25 40.5068 104.621 62.7048C99.2977 68.1683 78.5199 106.116 100.676 101.192C115.491 97.9001 139.121 72.4224 140.895 56.4506C141.728 48.9558 133.378 45.8042 126.751 46.059C109.52 46.7218 101.13 64.3659 98.4631 78.9657C97.3146 85.2522 94.4453 96.5843 103.274 96.285C115.403 95.8739 125.976 80.4607 132.332 71.6531C135.918 66.6833 150.295 46.3576 137.335 42.5952C123.392 38.5472 110.545 46.1038 105.391 59.3372C103.21 64.9365 96.3163 87.8062 104.814 91.0893C114.988 95.0202 122.21 90.0323 130.215 84.1615C139.451 77.3882 146.598 49.4841 129.83 47.8872C121.023 47.0484 114.503 54.5978 109.624 61.1653C104.013 68.7195 88.2012 86.9313 94.4219 97.151C109.387 121.737 134.112 70.2581 143.686 60.6842C156.689 47.6808 145.026 54.7708 138.49 62.801C133.359 69.1045 130.456 75.1682 127.136 82.4296C126.405 84.0283 123.154 95.883 124.827 94.7456C130.956 90.5781 136.057 79.4054 139.26 73.0002C141.416 68.6881 140.927 60.9411 144.071 57.7977C145.697 56.1712 130.827 93.727 125.789 90.7044C124.532 89.9504 140.648 67.0346 145.225 67.0346C150.248 67.0346 137.027 87.9721 135.796 90.1271C134.402 92.5655 129.506 90.9276 128.964 88.4914C127.756 83.0529 129.031 74.8414 132.428 70.5947C136.114 65.9879 141.834 64.2817 145.225 58.9523C147.35 55.614 146.691 50.6948 148.785 46.925C152.262 40.6677 155.196 37.0507 160.043 32.2036C161.381 30.8655 133.92 33.3915 128.483 35.6674C106.122 45.0279 86.5461 62.4586 62.4774 68.1893C55.2716 69.9049 33.1526 77.2338 52.6631 77.2338C53.942 77.2338 76.1438 78.1207 67.1921 81.5636C62.7535 83.2708 48.1962 82.4296 52.9518 82.4296C59.5672 82.4296 65.7927 80.6977 72.3879 80.6977C85.7204 80.6977 83.8379 96.5849 83.8379 105.811C83.8379 111.855 72.9283 117.964 71.8106 110.141C70.3884 100.185 124.727 87.2394 85.9547 113.604C84.7472 114.425 78.3398 116.096 80.374 114.951C85.0445 112.324 88.2433 106.879 92.4976 103.598C98.8486 98.6983 104.934 93.4662 111.164 88.3951C123.626 78.2517 128.349 60.4571 139.067 48.3683C140.002 47.314 154.293 29.151 154.847 39.1313C154.9 40.0824 154.888 48.1048 157.926 45.6742C162.549 41.9757 163.055 30.3523 158.311 28.3548C148.557 24.2478 138.55 44.3271 146.187 44.3271C150.433 44.3271 159.362 37.3994 151.383 37.3994" stroke="#9AC1BF" stroke-width="10" stroke-linecap="round"/>
<path d="M103.314 16.0742C127.268 16.0742 146.686 33.8562 146.686 55.7914C146.686 77.7267 127.268 95.5087 103.314 95.5087C79.3608 95.5087 59.9426 77.7267 59.9426 55.7914C59.9426 33.8562 79.3608 16.0742 103.314 16.0742ZM103.314 88.6014C123.102 88.6014 139.143 73.9119 139.143 55.7914C139.143 37.671 123.102 22.9815 103.314 22.9815C83.5267 22.9815 67.4855 37.671 67.4855 55.7914C67.509 73.9031 83.5361 88.5798 103.312 88.6013H103.314L103.314 88.6014ZM103.314 49.0568C107.376 49.0568 110.669 52.0721 110.669 55.7914C110.669 59.5108 107.376 62.5261 103.314 62.5261C99.2526 62.5261 95.96 59.5108 95.96 55.7914C95.9642 52.0735 99.2544 49.0607 103.314 49.0568H103.314ZM118.638 74.7073L99.5428 57.2212V29.4054H107.086V54.3615L123.971 69.8237L118.638 74.7073Z" fill="#313035"/>
</svg>
