<svg width="152" height="186" viewBox="0 0 152 186" fill="none" xmlns="http://www.w3.org/2000/svg">
<path d="M75.8579 17.0378C66.8419 17.0378 60.3093 18.0572 55.0747 26.5634C51.1894 32.8771 44.4931 40.9428 49.0129 49.0786C55.1668 60.1555 96.8495 65.7011 98.2768 50.7143C98.8152 45.0608 99.284 38.489 94.9091 34.3571C92.5424 32.1219 88.8324 32.2668 86.6344 30.5084C81.4291 26.3442 61.4718 28.16 55.8445 30.8933C47.6131 34.8914 47.5601 48.6798 55.0747 52.0613C68.3221 58.0227 80.6217 57.112 95.4865 56.8723C109.179 56.6514 103.917 32.973 97.507 26.5634C87.417 16.4734 64.3012 18.7698 51.8033 18.7698C44.3586 18.7698 38.6793 18.7098 37.8516 27.8143C37.0378 36.7663 36.6627 47.9694 38.7176 56.776C40.726 65.3834 63.8229 87.7661 73.26 78.329C78.4951 73.0939 82.8421 66.0631 87.5965 60.3361C92.6009 54.3081 100.329 48.0771 100.105 39.5529C99.6359 21.7307 79.8437 23.8128 67.7755 23.9656C53.7037 24.1437 15.9711 32.4674 33.3293 53.7933C45.057 68.2015 75.5504 76.5628 92.4075 70.7277C98.7808 68.5215 101.001 60.0492 101.837 53.9857C103.35 43.0126 104.378 37.2937 95.8713 29.3538C85.6624 19.8255 52.9438 21.8355 44.7793 32.7214C39.2075 40.1505 40.0432 59.0543 51.8995 60.2399C69.7408 62.024 91.6416 64.5418 94.7167 42.2471C98.1604 17.28 80.7295 11.8791 60.0781 21.8487C46.5937 28.3585 29.969 52.4949 50.2638 60.3361C60.3881 64.2478 73.5623 62.1924 84.1327 62.0681C94.8266 61.9422 104.85 61.1145 106.648 48.9823C109.99 26.4205 83.1627 24.0528 67.968 27.4294C57.1901 29.8245 24.4554 60.0313 48.2432 67.1676C66.6637 72.6938 96.7391 71.373 98.2768 47.5391C100.137 18.7114 61.7635 19.2714 42.5663 24.158C34.3101 26.2596 4.87931 44.1501 28.9033 50.6181C40.1002 53.6326 67.247 34.714 59.5008 21.4639C55.5643 14.7305 25.6553 48.9206 26.0167 56.8723C26.6828 71.5247 101.896 73.1043 90.3869 34.742C86.5078 21.8118 66.5143 20.8984 56.0369 24.158C25.012 33.8102 35.431 88.5205 66.9096 66.879C77.9666 59.2773 83.4632 42.7946 80.6688 30.2197C76.4029 11.0232 51.1277 15.8691 39.776 26.2748C32.5373 32.9102 22.0956 54.139 36.3121 59.4701C49.3257 64.3502 69.1587 64.0538 81.9196 59.1815C94.9666 54.1999 104.747 42.8711 97.6033 28.584C89.5897 12.5569 60.9636 14.0423 46.9924 17.8076C34.3281 21.2206 15.4764 33.7189 15.2403 48.5975C15.0205 62.4448 21.8383 70.4131 36.6008 68.226C51.3011 66.0482 77.1012 60.3318 84.5175 45.7109C92.5727 29.8308 83.2053 14.4522 64.5041 18.1924C51.6743 20.7584 37.0536 38.8511 48.9167 50.7143C57.6892 59.4868 80.0622 64.9695 90.0982 55.7176C98.8557 47.6443 101.08 31.6099 85.9608 29.45C70.6543 27.2634 57.9025 34.2696 51.8033 48.5013C48.0594 57.2369 43.9881 79.2766 60.3667 70.3428C70.8682 64.6147 80.8161 55.2759 86.923 44.9412C100.88 21.3218 35.8666 16.9625 41.6041 51.3878C44.5795 69.2399 115.249 49.3126 97.3146 18.9622C88.0961 3.36164 63.6249 17.6604 55.652 26.2748C50.4334 31.9133 40.2864 51.0733 48.5319 58.2193C57.4104 65.9141 73.4659 58.2886 79.5142 51.0991C90.509 38.0299 86.2844 23.2662 68.1604 22.4261C57.4357 21.9289 46.9324 26.0982 40.4495 34.742C36.5056 40.0005 29.6688 50.471 32.9445 57.4496C38.5879 69.4726 77.709 60.4093 85.6722 55.5252C95.4338 49.5381 92.8448 31.2117 82.4007 27.8143C62.4454 21.3228 33.7769 30.1052 27.3638 51.6765C17.2611 85.6583 73.9335 75.8858 73.9335 45.4223C73.9335 35.9943 64.21 20.5063 53.2466 29.6424C46.7931 35.0204 44.2814 44.7294 45.068 52.8311C45.9952 62.3815 56.0613 63.2759 63.8306 63.5113C74.1211 63.8232 95.9785 60.918 91.1566 44.845C87.0613 31.194 59.0739 40.1804 55.1709 50.4256C49.6657 64.8769 49.4459 78.6506 67.6793 80.7344C81.8916 82.3587 90.4653 68.824 90.9642 56.1025C92.2814 22.5123 32.235 40.9085 40.2571 67.6487C45.4537 84.9709 70.3683 68.4579 75.8579 60.5286C79.0053 55.9822 86.4837 44.6305 83.5554 38.5908C79.1543 29.5136 65.4602 27.1904 56.8066 29.3538C35.9319 34.5725 11.932 54.0206 24.6697 78.0403C35.6906 98.8226 60.536 70.3846 68.3529 60.5286C75.8785 51.0397 83.3779 35.4148 67.1982 31.663C55.0482 28.8456 44.1002 38.296 41.6041 49.9445C38.1287 66.1631 65.6887 58.4573 73.3562 55.6214C81.2704 52.6943 98.2577 46.9572 101.26 37.821C104.467 28.0594 86.382 29.3841 82.3045 29.7387C62.8592 31.4296 48.3311 42.5218 39.5835 59.4701C36.0415 66.3328 36.2032 87.6243 49.3978 81.2155C60.9499 75.6045 79.0268 51.4124 72.5865 37.2437C64.8397 20.2009 36.5616 32.0084 29.2882 42.5357C14.3735 64.1227 29.1033 69.3382 48.0508 75.1538C67.7152 81.1894 97.1924 89.7114 98.2768 60.4323C98.7341 48.0837 94.2003 41.0658 81.631 39.9378C65.7858 38.5158 55.3978 44.7214 45.6453 56.6798C41.0543 62.3093 24.0246 85.6703 37.563 91.126C51.8838 96.8971 63.5197 87.8088 70.6621 75.5386C77.9566 63.007 79.6257 43.4746 75.473 29.7387C71.4909 16.5672 52.0645 22.4012 45.4529 29.9311C31.2048 46.1581 47.8727 50.5858 62.7722 51.2916C68.5609 51.5658 138.378 57.1688 132.242 39.1681C129.553 31.2793 111.997 34.3571 106.744 34.3571C92.7606 34.3571 78.4603 33.5709 64.5041 34.742C58.7348 35.2262 23.4145 43.343 37.1781 55.1403C44.5068 61.4221 54.2352 62.0681 63.3495 62.0681C78.6785 62.0681 106.117 66.6447 114.923 50.3294C128.861 24.5014 60.7176 22.4389 51.9957 47.6353C46.9812 62.1216 51.4876 70.2072 66.4285 72.0748C80.976 73.8932 101.815 75.0674 115.5 70.3428C125.606 66.854 125.776 51.7424 121.562 43.979C113.988 30.0278 90.7532 28.9963 76.9163 29.45C35.6227 30.8039 57.6397 85.2667 80.8612 63.7038C86.8093 58.1806 93.3692 46.9396 92.1188 38.687C89.1996 19.4203 58.1337 26.4589 46.9924 31.8555C36.2597 37.0541 24.6566 51.5611 33.1369 63.8962C40.6605 74.8396 61.5765 88.3793 74.7995 79.9647C84.985 73.483 83.0359 58.2132 82.7856 47.8277C82.3447 29.5291 68.6912 27.0659 52.7655 34.3571C38.418 40.9259 43.1936 60.3629 55.2671 65.9168C68.9535 72.2125 103.477 85.6609 115.307 68.6109C123.165 57.2869 113.627 41.1077 101.837 38.5908C89.8117 36.0236 76.2728 36.1084 64.1192 36.4739C51.397 36.8566 31.1427 36.5779 22.9378 48.7899C15.5835 59.7358 30.8903 70.7904 37.3705 77.2706C49.609 89.509 62.5366 98.3411 80.2839 99.7857C92.9298 100.815 91.4453 87.7753 91.4453 78.4252C91.4453 60.008 93.5214 40.3551 88.6549 22.4261C84.5353 7.2484 78.7642 0.795826 64.5041 10.3025C53.2186 17.8262 39.0995 28.5121 35.2537 42.2471C25.4054 77.4195 74.2464 69.5629 93.8507 65.4357C106.621 62.7472 117.648 52.0182 108.572 38.7832C100.964 27.6882 88.5911 24.158 75.5692 24.158C60.2459 24.158 34.8422 31.3993 29.4806 48.0202C23.5343 66.4536 27.0011 94.8094 35.6386 111.717C43.7804 127.654 69.8211 110.599 81.0537 107.098C98.2329 101.744 112.859 85.3934 119.733 69.1882C133.711 36.2412 74.0385 38.0298 56.6142 41.2849C46.4436 43.1849 40.3476 55.8704 47.5697 64.5697C56.4904 75.3152 65.0431 78.3253 78.552 77.6554C99.14 76.6345 128.313 66.4249 133.204 43.3055C137.224 24.3039 111.153 25.6975 99.3352 25.6975C81.1864 25.6975 51.525 31.9205 44.8756 51.8689C40.4984 65.0004 46.3622 69.7645 56.8066 76.8857C69.3113 85.4116 82.1482 91.8822 97.9881 91.2222C116.88 90.4351 114.048 69.8278 106.167 57.8344C90.1414 33.4481 45.9187 58.8211 48.2432 84.3907C50.0221 103.959 81.0245 77.2911 82.4007 66.1092C85.2335 43.0934 58.1074 43.3654 41.6041 45.1336C26.6785 46.7328 12.6724 53.4671 15.6252 69.5731C17.0892 77.5591 28.1996 82.2503 35.4461 80.3495C49.2048 76.7407 53.5028 60.277 53.3428 47.6353C52.8913 11.9664 -19.3589 65.7494 14.4705 87.2773C25.2658 94.147 45.6284 97.0777 58.1537 98.9197C71.3524 100.861 70.6621 82.6624 70.6621 74.2878C70.6621 60.5461 68.3403 55.4361 52.8617 57.2571C32.9951 59.5944 19.0805 73.5703 23.1302 94.3974C28.1453 120.19 97.1664 87.6606 102.414 72.2672C114.49 36.8452 65.4169 26.9705 55.1709 58.9891C51.9342 69.104 46.9526 87.5074 57.865 94.7823C66.8624 100.781 78.7301 100.869 86.7306 93.339C102.967 78.0579 90.559 40.9284 68.9302 63.1265C63.6068 68.5899 42.8289 106.537 64.9852 101.614C79.7998 98.3217 103.43 72.844 105.205 56.8723C106.037 49.3774 97.6872 46.2258 91.0604 46.4807C73.8294 47.1434 65.4395 64.7875 62.7722 79.3874C61.6237 85.6738 58.7544 97.006 67.5831 96.7067C79.7119 96.2955 90.2851 80.8823 96.6411 72.0748C100.228 67.1049 114.604 46.7792 101.644 43.0168C87.7015 38.9689 74.854 46.5254 69.6999 59.7588C67.5191 65.3581 60.6253 88.2279 69.1226 91.5109C79.2968 95.4418 86.5186 90.454 94.5243 84.5832C103.761 77.8099 110.907 49.9058 94.1394 48.3088C85.3318 47.47 78.8122 55.0194 73.9335 61.587C68.3219 69.1411 52.5103 87.3529 58.731 97.5726C73.6963 122.158 98.4209 70.6798 107.995 61.1059C120.998 48.1024 109.335 55.1924 102.799 63.2227C97.6683 69.5261 94.7648 75.5898 91.4453 82.8512C90.7145 84.4499 87.4633 96.3047 89.136 95.1672C95.2646 90.9997 100.366 79.827 103.569 73.4218C105.725 69.1097 105.236 61.3627 108.38 58.2193C110.006 56.5928 95.1359 94.1486 90.0982 91.126C88.8415 90.372 104.957 67.4563 109.534 67.4563C114.557 67.4563 101.336 88.3938 100.105 90.5487C98.7115 92.9872 93.8148 91.3493 93.2734 88.913C92.0649 83.4745 93.34 75.263 96.7373 71.0164C100.423 66.4095 106.143 64.7033 109.534 59.3739C111.659 56.0356 111 51.1164 113.094 47.3466C116.571 41.0894 119.505 37.4723 124.352 32.6252C125.69 31.2872 98.2292 33.8132 92.7923 36.0891C70.4311 45.4496 50.8552 62.8802 26.7865 68.6109C19.5807 70.3266 -2.53831 77.6554 16.9722 77.6554C18.2511 77.6554 40.4529 78.5423 31.5012 81.9853C27.0626 83.6924 12.5053 82.8512 17.2609 82.8512C23.8762 82.8512 30.1018 81.1193 36.697 81.1193C50.0295 81.1193 48.147 97.0065 48.147 106.232C48.147 112.277 37.2373 118.386 36.1197 110.562C34.6975 100.607 89.0358 87.6611 50.2638 114.026C49.0563 114.847 42.6489 116.517 44.6831 115.373C49.3536 112.746 52.5524 107.301 56.8066 104.019C63.1577 99.1199 69.2428 93.8878 75.473 88.8168C87.9349 78.6734 92.6585 60.8787 103.376 48.7899C104.311 47.7356 118.602 29.5726 119.156 39.5529C119.209 40.504 119.197 48.5264 122.235 46.0958C126.858 42.3974 127.364 30.7739 122.62 28.7765C112.866 24.6694 102.859 44.7487 110.497 44.7487C114.742 44.7487 123.671 37.821 115.692 37.821" stroke="#C19ABD" stroke-width="10" stroke-linecap="round"/>
<path d="M59.17 15.8249H79.9419V41.3387C81.4092 40.9988 83.0947 40.8021 84.8294 40.7989H84.8318C96.5614 40.8357 106.057 49.5822 106.077 60.3732V60.375C106.077 71.653 99.818 81.5346 87.9926 88.9513C82.9125 92.1577 77.0455 94.7951 70.7733 96.5854L70.3111 96.699L69.5288 96.8933L68.7465 96.6954C62.0125 94.7713 56.1485 92.1219 50.8454 88.7749L51.0689 88.9081C39.2514 81.4735 33.0002 71.6063 33.0002 60.3752C33.0135 49.5685 42.5331 40.8112 54.2792 40.799H54.2805C56.0176 40.8024 57.703 40.999 59.315 41.3667L59.1705 41.3388L59.17 15.8249ZM74.0742 21.2227H65.0379V49.4714L60.8248 47.5821C58.9108 46.714 56.6593 46.2035 54.2789 46.1966H54.2763C45.7695 46.2068 38.8767 52.5489 38.8678 60.3741V60.3749C38.8678 69.8751 44.0901 77.9754 54.3899 84.4528C58.7494 87.1974 63.7637 89.5144 69.1074 91.1734L69.5403 91.29C75.3698 89.5143 80.4323 87.1815 85.0425 84.2845L84.8317 84.4095C95.0455 77.9648 100.221 69.8789 100.221 60.375C100.207 52.5571 93.3283 46.2213 84.8342 46.1967H84.8316C82.4513 46.2043 80.2026 46.7147 78.2018 47.6186L78.2911 47.5822L74.0742 49.4714V21.2227ZM84.5187 21.2227H54.6323V15.8249H84.5187V21.2227ZM87.4525 68.5149C80.8835 68.3682 74.7041 66.9873 69.1239 64.6161L69.4114 64.7256C60.8444 61.6452 53.4472 58.986 37.1622 65.6505L34.776 60.7169C53.2985 53.1384 62.5734 56.4743 71.5472 59.6985C76.3674 61.8827 82.0399 63.1605 88.0368 63.1605C93.1589 63.1605 98.0445 62.2284 102.504 60.5384L102.251 60.6233L104.105 65.7441C99.1603 67.4108 93.4508 68.4181 87.4997 68.5143L87.4526 68.5149L87.4525 68.5149ZM62.104 76.1726H54.6324V70.7748H62.104V76.1726ZM77.0471 83.0459H69.5756V77.648H77.0471V83.0459Z" fill="#313035"/>
<path d="M12.28 169.81C11.1067 169.81 10.02 169.636 9.02 169.29C8.02 168.943 7.14 168.45 6.38 167.81C5.63333 167.156 5.05333 166.39 4.64 165.51C4.22667 164.616 4.02 163.63 4.02 162.55C4.02 161.496 4.23333 160.53 4.66 159.65C5.08667 158.77 5.67333 158.003 6.42 157.35C7.16667 156.696 8.04 156.196 9.04 155.85C10.0533 155.503 11.14 155.33 12.3 155.33C13.1267 155.33 13.92 155.43 14.68 155.63C15.4533 155.816 16.1667 156.076 16.82 156.41C17.4867 156.73 18.0467 157.096 18.5 157.51L16.52 160.13C16.1733 159.823 15.7867 159.543 15.36 159.29C14.9333 159.036 14.4533 158.836 13.92 158.69C13.3867 158.543 12.7867 158.47 12.12 158.47C11.5333 158.47 10.9667 158.563 10.42 158.75C9.88667 158.923 9.39333 159.183 8.94 159.53C8.5 159.876 8.15333 160.31 7.9 160.83C7.64667 161.35 7.52 161.936 7.52 162.59C7.52 163.243 7.65333 163.83 7.92 164.35C8.18667 164.87 8.55333 165.303 9.02 165.65C9.48667 165.996 10.02 166.263 10.62 166.45C11.2333 166.623 11.8733 166.71 12.54 166.71C13.2067 166.71 13.8067 166.623 14.34 166.45C14.8733 166.263 15.3467 166.036 15.76 165.77C16.1867 165.49 16.56 165.23 16.88 164.99L18.48 167.61C18.1067 167.943 17.6 168.283 16.96 168.63C16.32 168.963 15.6 169.243 14.8 169.47C14 169.696 13.16 169.81 12.28 169.81ZM23.1827 169.61V155.61H26.2227L32.2627 163.63L30.2627 163.61L36.3027 155.61H39.3027V169.61H36.0027V165.11C36.0027 163.976 36.0293 162.923 36.0827 161.95C36.136 160.976 36.2427 159.996 36.4027 159.01L36.7427 160.11L31.9027 166.21H30.5827L25.7027 160.09L26.0827 159.01C26.2427 159.983 26.3493 160.956 26.4027 161.93C26.456 162.89 26.4827 163.95 26.4827 165.11V169.61H23.1827ZM51.0934 169.81C50.0134 169.81 49.0268 169.71 48.1334 169.51C47.2534 169.296 46.4534 169.003 45.7334 168.63C45.0268 168.256 44.3801 167.823 43.7934 167.33L45.5134 164.71C46.4734 165.523 47.4468 166.103 48.4334 166.45C49.4201 166.783 50.3801 166.95 51.3134 166.95C51.7268 166.95 52.1401 166.91 52.5534 166.83C52.9801 166.736 53.3334 166.59 53.6134 166.39C53.9068 166.176 54.0534 165.883 54.0534 165.51C54.0534 165.296 53.9868 165.116 53.8534 164.97C53.7201 164.81 53.5334 164.683 53.2934 164.59C53.0534 164.483 52.7668 164.396 52.4334 164.33C52.1134 164.263 51.7734 164.21 51.4134 164.17C51.0534 164.116 50.6801 164.063 50.2934 164.01C49.3868 163.903 48.5868 163.736 47.8934 163.51C47.2001 163.283 46.6001 162.996 46.0934 162.65C45.6001 162.303 45.2201 161.89 44.9534 161.41C44.7001 160.916 44.5734 160.356 44.5734 159.73C44.5734 159.036 44.7334 158.416 45.0534 157.87C45.3868 157.31 45.8534 156.843 46.4534 156.47C47.0534 156.083 47.7401 155.79 48.5134 155.59C49.3001 155.39 50.1401 155.29 51.0334 155.29C51.9934 155.29 52.8534 155.383 53.6134 155.57C54.3868 155.756 55.0668 156.01 55.6534 156.33C56.2401 156.65 56.7201 157.01 57.0934 157.41L55.3334 159.69C54.9601 159.356 54.5334 159.083 54.0534 158.87C53.5734 158.643 53.0668 158.47 52.5334 158.35C52.0001 158.23 51.4801 158.17 50.9734 158.17C50.4268 158.17 49.9401 158.223 49.5134 158.33C49.1001 158.423 48.7668 158.563 48.5134 158.75C48.2601 158.936 48.1334 159.176 48.1334 159.47C48.1334 159.736 48.2334 159.956 48.4334 160.13C48.6468 160.303 48.9201 160.443 49.2534 160.55C49.6001 160.656 49.9734 160.743 50.3734 160.81C50.7734 160.876 51.1734 160.93 51.5734 160.97C52.3468 161.076 53.0934 161.21 53.8134 161.37C54.5468 161.53 55.2001 161.756 55.7734 162.05C56.3468 162.343 56.7934 162.736 57.1134 163.23C57.4468 163.723 57.6134 164.363 57.6134 165.15C57.6134 166.136 57.3268 166.976 56.7534 167.67C56.1934 168.363 55.4201 168.896 54.4334 169.27C53.4601 169.63 52.3468 169.81 51.0934 169.81ZM79.1159 169.81C77.9426 169.81 76.8559 169.636 75.8559 169.29C74.8559 168.943 73.9759 168.45 73.2159 167.81C72.4693 167.156 71.8893 166.39 71.4759 165.51C71.0626 164.616 70.8559 163.63 70.8559 162.55C70.8559 161.496 71.0693 160.53 71.4959 159.65C71.9226 158.77 72.5093 158.003 73.2559 157.35C74.0026 156.696 74.8759 156.196 75.8759 155.85C76.8893 155.503 77.9759 155.33 79.1359 155.33C79.9626 155.33 80.7559 155.43 81.5159 155.63C82.2893 155.816 83.0026 156.076 83.6559 156.41C84.3226 156.73 84.8826 157.096 85.3359 157.51L83.3559 160.13C83.0093 159.823 82.6226 159.543 82.1959 159.29C81.7693 159.036 81.2893 158.836 80.7559 158.69C80.2226 158.543 79.6226 158.47 78.9559 158.47C78.3693 158.47 77.8026 158.563 77.2559 158.75C76.7226 158.923 76.2293 159.183 75.7759 159.53C75.3359 159.876 74.9893 160.31 74.7359 160.83C74.4826 161.35 74.3559 161.936 74.3559 162.59C74.3559 163.243 74.4893 163.83 74.7559 164.35C75.0226 164.87 75.3893 165.303 75.8559 165.65C76.3226 165.996 76.8559 166.263 77.4559 166.45C78.0693 166.623 78.7093 166.71 79.3759 166.71C80.0426 166.71 80.6426 166.623 81.1759 166.45C81.7093 166.263 82.1826 166.036 82.5959 165.77C83.0226 165.49 83.3959 165.23 83.7159 164.99L85.3159 167.61C84.9426 167.943 84.4359 168.283 83.7959 168.63C83.1559 168.963 82.4359 169.243 81.6359 169.47C80.8359 169.696 79.9959 169.81 79.1159 169.81ZM90.4586 169.61V154.81H93.6586V169.61H90.4586ZM104.581 169.83C103.674 169.83 102.881 169.63 102.201 169.23C101.534 168.83 101.021 168.243 100.661 167.47C100.301 166.696 100.121 165.77 100.121 164.69V158.99H103.321V164.11C103.321 164.736 103.408 165.263 103.581 165.69C103.754 166.116 104.028 166.443 104.401 166.67C104.774 166.883 105.248 166.99 105.821 166.99C106.221 166.99 106.594 166.93 106.941 166.81C107.288 166.676 107.594 166.496 107.861 166.27C108.141 166.043 108.354 165.763 108.501 165.43C108.661 165.096 108.741 164.73 108.741 164.33V158.99H111.941V169.61H108.941L108.801 167.43L109.381 167.19C109.221 167.63 108.921 168.056 108.481 168.47C108.041 168.87 107.488 169.196 106.821 169.45C106.168 169.703 105.421 169.83 104.581 169.83ZM125.723 169.83C125.083 169.83 124.476 169.75 123.903 169.59C123.329 169.43 122.829 169.223 122.403 168.97C121.976 168.703 121.623 168.416 121.343 168.11C121.063 167.803 120.883 167.51 120.803 167.23L121.803 167.13L121.603 169.59H118.623V154.81H121.843V161.53L120.903 161.43C120.996 161.11 121.176 160.796 121.443 160.49C121.723 160.183 122.083 159.903 122.523 159.65C122.963 159.383 123.456 159.17 124.003 159.01C124.549 158.85 125.143 158.77 125.783 158.77C126.876 158.77 127.856 159.01 128.723 159.49C129.589 159.956 130.276 160.61 130.783 161.45C131.289 162.276 131.543 163.223 131.543 164.29C131.543 165.37 131.296 166.33 130.803 167.17C130.309 167.996 129.623 168.65 128.743 169.13C127.863 169.596 126.856 169.83 125.723 169.83ZM125.023 167.11C125.703 167.11 126.296 166.99 126.803 166.75C127.309 166.51 127.703 166.183 127.983 165.77C128.263 165.343 128.403 164.85 128.403 164.29C128.403 163.73 128.256 163.243 127.963 162.83C127.683 162.403 127.289 162.076 126.783 161.85C126.289 161.623 125.703 161.51 125.023 161.51C124.329 161.51 123.729 161.623 123.223 161.85C122.716 162.076 122.316 162.403 122.023 162.83C121.729 163.243 121.583 163.73 121.583 164.29C121.583 164.85 121.729 165.343 122.023 165.77C122.316 166.183 122.716 166.51 123.223 166.75C123.729 166.99 124.329 167.11 125.023 167.11Z" fill="black"/>
</svg>
