<svg width="177" height="187" viewBox="0 0 177 187" fill="none" xmlns="http://www.w3.org/2000/svg">
<path d="M95.5977 17.0378C86.5817 17.0378 80.0491 18.0572 74.8145 26.5634C70.9292 32.8771 64.2329 40.9428 68.7528 49.0786C74.9066 60.1555 116.589 65.7011 118.017 50.7143C118.555 45.0608 119.024 38.489 114.649 34.3571C112.282 32.1219 108.572 32.2668 106.374 30.5084C101.169 26.3442 81.2116 28.16 75.5843 30.8933C67.3529 34.8914 67.2999 48.6798 74.8145 52.0613C88.0619 58.0227 100.361 57.112 115.226 56.8723C128.919 56.6514 123.656 32.973 117.247 26.5634C107.157 16.4734 84.0411 18.7698 71.5431 18.7698C64.0984 18.7698 58.4191 18.7098 57.5914 27.8143C56.7776 36.7663 56.4025 47.9694 58.4574 56.776C60.4658 65.3834 83.5627 87.7661 92.9998 78.329C98.2349 73.0939 102.582 66.0631 107.336 60.3361C112.341 54.3081 120.069 48.0771 119.845 39.5529C119.376 21.7307 99.5835 23.8128 87.5153 23.9656C73.4435 24.1437 35.7109 32.4674 53.0692 53.7933C64.7968 68.2015 95.2902 76.5628 112.147 70.7277C118.521 68.5215 120.74 60.0492 121.577 53.9857C123.09 43.0126 124.118 37.2937 115.611 29.3538C105.402 19.8255 72.6836 21.8355 64.5191 32.7214C58.9473 40.1505 59.783 59.0543 71.6393 60.2399C89.4806 62.024 111.381 64.5418 114.457 42.2471C117.9 17.28 100.469 11.8791 79.8179 21.8487C66.3335 28.3585 49.7088 52.4949 70.0036 60.3361C80.1279 64.2478 93.3022 62.1924 103.872 62.0681C114.566 61.9422 124.59 61.1145 126.388 48.9823C129.73 26.4205 102.902 24.0528 87.7078 27.4294C76.9299 29.8245 44.1952 60.0313 67.983 67.1676C86.4035 72.6938 116.479 71.373 118.017 47.5391C119.876 18.7114 81.5034 19.2714 62.3061 24.158C54.0499 26.2596 24.6191 44.1501 48.6431 50.6181C59.84 53.6326 86.9868 34.714 79.2406 21.4639C75.3041 14.7305 45.3951 48.9206 45.7565 56.8723C46.4226 71.5247 121.635 73.1043 110.127 34.742C106.248 21.8118 86.2541 20.8984 75.7767 24.158C44.7518 33.8102 55.1708 88.5205 86.6494 66.879C97.7064 59.2773 103.203 42.7946 100.409 30.2197C96.1427 11.0232 70.8675 15.8691 59.5158 26.2748C52.2771 32.9102 41.8354 54.139 56.0519 59.4701C69.0655 64.3502 88.8985 64.0538 101.659 59.1815C114.706 54.1999 124.487 42.8711 117.343 28.584C109.33 12.5569 80.7034 14.0423 66.7322 17.8076C54.0679 21.2206 35.2163 33.7189 34.9801 48.5975C34.7603 62.4448 41.5781 70.4131 56.3406 68.226C71.0409 66.0482 96.841 60.3318 104.257 45.7109C112.312 29.8308 102.945 14.4522 84.2439 18.1924C71.4142 20.7584 56.7934 38.8511 68.6565 50.7143C77.429 59.4868 99.802 64.9695 109.838 55.7176C118.595 47.6443 120.82 31.6099 105.701 29.45C90.3941 27.2634 77.6424 34.2696 71.5431 48.5013C67.7992 57.2369 63.7279 79.2766 80.1065 70.3428C90.608 64.6147 100.556 55.2759 106.663 44.9412C120.62 21.3218 55.6064 16.9625 61.3439 51.3878C64.3193 69.2399 134.989 49.3126 117.054 18.9622C107.836 3.36164 83.3647 17.6604 75.3918 26.2748C70.1732 31.9133 60.0262 51.0733 68.2717 58.2193C77.1503 65.9141 93.2057 58.2886 99.254 51.0991C110.249 38.0299 106.024 23.2662 87.9002 22.4261C77.1755 21.9289 66.6722 26.0982 60.1893 34.742C56.2455 40.0005 49.4086 50.471 52.6843 57.4496C58.3278 69.4726 97.4488 60.4093 105.412 55.5252C115.174 49.5381 112.585 31.2117 102.141 27.8143C82.1852 21.3228 53.5167 30.1052 47.1036 51.6765C37.0009 85.6583 93.6733 75.8858 93.6733 45.4223C93.6733 35.9943 83.9498 20.5063 72.9864 29.6424C66.5329 35.0204 64.0212 44.7294 64.8078 52.8311C65.735 62.3815 75.8011 63.2759 83.5704 63.5113C93.8609 63.8232 115.718 60.918 110.896 44.845C106.801 31.194 78.8137 40.1804 74.9107 50.4256C69.4055 64.8769 69.1857 78.6506 87.4191 80.7344C101.631 82.3587 110.205 68.824 110.704 56.1025C112.021 22.5123 51.9748 40.9085 59.9969 67.6487C65.1935 84.9709 90.1082 68.4579 95.5977 60.5286C98.7451 55.9822 106.224 44.6305 103.295 38.5908C98.8941 29.5136 85.2 27.1904 76.5464 29.3538C55.6717 34.5725 31.6718 54.0206 44.4095 78.0403C55.4304 98.8226 80.2758 70.3846 88.0927 60.5286C95.6183 51.0397 103.118 35.4148 86.938 31.663C74.788 28.8456 63.84 38.296 61.3439 49.9445C57.8685 66.1631 85.4285 58.4573 93.096 55.6214C101.01 52.6943 117.997 46.9572 120.999 37.821C124.207 28.0594 106.122 29.3841 102.044 29.7387C82.599 31.4296 68.0709 42.5218 59.3233 59.4701C55.7813 66.3328 55.943 87.6243 69.1376 81.2155C80.6897 75.6045 98.7666 51.4124 92.3263 37.2437C84.5795 20.2009 56.3014 32.0084 49.028 42.5357C34.1133 64.1227 48.8431 69.3382 67.7906 75.1538C87.455 81.1894 116.932 89.7114 118.017 60.4323C118.474 48.0837 113.94 41.0658 101.371 39.9378C85.5256 38.5158 75.1376 44.7214 65.3851 56.6798C60.7941 62.3093 43.7644 85.6703 57.3028 91.126C71.6236 96.8971 83.2595 87.8088 90.4019 75.5386C97.6964 63.007 99.3655 43.4746 95.2128 29.7387C91.2307 16.5672 71.8043 22.4012 65.1927 29.9311C50.9446 46.1581 67.6125 50.5858 82.512 51.2916C88.3007 51.5658 158.118 57.1688 151.982 39.1681C149.292 31.2793 131.737 34.3571 126.484 34.3571C112.5 34.3571 98.2001 33.5709 84.2439 34.742C78.4746 35.2262 43.1543 43.343 56.9179 55.1403C64.2467 61.4221 73.975 62.0681 83.0893 62.0681C98.4183 62.0681 125.857 66.6447 134.662 50.3294C148.601 24.5014 80.4574 22.4389 71.7355 47.6353C66.721 62.1216 71.2274 70.2072 86.1683 72.0748C100.716 73.8932 121.555 75.0674 135.24 70.3428C145.345 66.854 145.516 51.7424 141.301 43.979C133.728 30.0278 110.493 28.9963 96.6561 29.45C55.3626 30.8039 77.3795 85.2667 100.601 63.7038C106.549 58.1806 113.109 46.9396 111.859 38.687C108.939 19.4203 77.8735 26.4589 66.7322 31.8555C55.9995 37.0541 44.3964 51.5611 52.8767 63.8962C60.4003 74.8396 81.3163 88.3793 94.5393 79.9647C104.725 73.483 102.776 58.2132 102.525 47.8277C102.084 29.5291 88.431 27.0659 72.5053 34.3571C58.1578 40.9259 62.9334 60.3629 75.007 65.9168C88.6933 72.2125 123.217 85.6609 135.047 68.6109C142.905 57.2869 133.367 41.1077 121.577 38.5908C109.551 36.0236 96.0126 36.1084 83.859 36.4739C71.1368 36.8566 50.8825 36.5779 42.6776 48.7899C35.3233 59.7358 50.6301 70.7904 57.1103 77.2706C69.3488 89.509 82.2764 98.3411 100.024 99.7857C112.67 100.815 111.185 87.7753 111.185 78.4252C111.185 60.008 113.261 40.3551 108.395 22.4261C104.275 7.2484 98.504 0.795826 84.2439 10.3025C72.9585 17.8262 58.8393 28.5121 54.9935 42.2471C45.1452 77.4195 93.9862 69.5629 113.591 65.4357C126.361 62.7472 137.387 52.0182 128.312 38.7832C120.704 27.6882 108.331 24.158 95.309 24.158C79.9857 24.158 54.582 31.3993 49.2204 48.0202C43.2741 66.4536 46.741 94.8094 55.3784 111.717C63.5202 127.654 89.5609 110.599 100.793 107.098C117.973 101.744 132.598 85.3934 139.473 69.1882C153.451 36.2412 93.7783 38.0298 76.354 41.2849C66.1834 43.1849 60.0874 55.8704 67.3095 64.5697C76.2302 75.3152 84.7829 78.3253 98.2918 77.6554C118.88 76.6345 148.053 66.4249 152.944 43.3055C156.963 24.3039 130.892 25.6975 119.075 25.6975C100.926 25.6975 71.2648 31.9205 64.6154 51.8689C60.2382 65.0004 66.102 69.7645 76.5464 76.8857C89.0511 85.4116 101.888 91.8822 117.728 91.2222C136.62 90.4351 133.788 69.8278 125.907 57.8344C109.881 33.4481 65.6585 58.8211 67.983 84.3907C69.7619 103.959 100.764 77.2911 102.141 66.1092C104.973 43.0934 77.8472 43.3654 61.3439 45.1336C46.4183 46.7328 32.4122 53.4671 35.365 69.5731C36.8291 77.5591 47.9394 82.2503 55.186 80.3495C68.9447 76.7407 73.2426 60.277 73.0826 47.6353C72.6311 11.9664 0.380859 65.7494 34.2103 87.2773C45.0056 94.147 65.3682 97.0777 77.8935 98.9197C91.0922 100.861 90.4019 82.6624 90.4019 74.2878C90.4019 60.5461 88.0801 55.4361 72.6015 57.2571C52.7349 59.5944 38.8203 73.5703 42.87 94.3974C47.8851 120.19 116.906 87.6606 122.154 72.2672C134.23 36.8452 85.1567 26.9705 74.9107 58.9891C71.674 69.104 66.6924 87.5074 77.6049 94.7823C86.6022 100.781 98.4699 100.869 106.47 93.339C122.707 78.0579 110.299 40.9284 88.67 63.1265C83.3466 68.5899 62.5688 106.537 84.725 101.614C99.5396 98.3217 123.17 72.844 124.944 56.8723C125.777 49.3774 117.427 46.2258 110.8 46.4807C93.5692 47.1434 85.1793 64.7875 82.512 79.3874C81.3635 85.6738 78.4942 97.006 87.3229 96.7067C99.4518 96.2955 110.025 80.8823 116.381 72.0748C119.967 67.1049 134.344 46.7792 121.384 43.0168C107.441 38.9689 94.5938 46.5254 89.4397 59.7588C87.2589 65.3581 80.3651 88.2279 88.8624 91.5109C99.0366 95.4418 106.258 90.454 114.264 84.5832C123.5 77.8099 130.647 49.9058 113.879 48.3088C105.072 47.47 98.552 55.0194 93.6733 61.587C88.0617 69.1411 72.2501 87.3529 78.4708 97.5726C93.4361 122.158 118.161 70.6798 127.735 61.1059C140.738 48.1024 129.075 55.1924 122.539 63.2227C117.408 69.5261 114.505 75.5898 111.185 82.8512C110.454 84.4499 107.203 96.3047 108.876 95.1672C115.004 90.9997 120.106 79.827 123.309 73.4218C125.465 69.1097 124.976 61.3627 128.12 58.2193C129.746 56.5928 114.876 94.1486 109.838 91.126C108.581 90.372 124.697 67.4563 129.274 67.4563C134.297 67.4563 121.076 88.3938 119.845 90.5487C118.451 92.9872 113.555 91.3493 113.013 88.913C111.805 83.4745 113.08 75.263 116.477 71.0164C120.163 66.4095 125.883 64.7033 129.274 59.3739C131.399 56.0356 130.74 51.1164 132.834 47.3466C136.31 41.0894 139.245 37.4723 144.092 32.6252C145.43 31.2872 117.969 33.8132 112.532 36.0891C90.1709 45.4496 70.595 62.8802 46.5263 68.6109C39.3205 70.3266 17.2015 77.6554 36.712 77.6554C37.9909 77.6554 60.1927 78.5423 51.241 81.9853C46.8024 83.6924 32.2451 82.8512 37.0007 82.8512C43.616 82.8512 49.8416 81.1193 56.4368 81.1193C69.7693 81.1193 67.8868 97.0065 67.8868 106.232C67.8868 112.277 56.9772 118.386 55.8595 110.562C54.4373 100.607 108.776 87.6611 70.0036 114.026C68.7961 114.847 62.3887 116.517 64.4229 115.373C69.0934 112.746 72.2922 107.301 76.5464 104.019C82.8975 99.1199 88.9827 93.8878 95.2128 88.8168C107.675 78.6734 112.398 60.8787 123.116 48.7899C124.051 47.7356 138.342 29.5726 138.896 39.5529C138.949 40.504 138.937 48.5264 141.975 46.0958C146.598 42.3974 147.104 30.7739 142.36 28.7765C132.606 24.6694 122.599 44.7487 130.236 44.7487C134.482 44.7487 143.411 37.821 135.432 37.821" stroke="#B9C19A" stroke-width="10" stroke-linecap="round"/>
<path d="M89.2784 44.182C98.8747 44.182 106.654 51.3059 106.654 60.0937C106.654 68.8815 98.8748 76.0054 89.2784 76.0054C79.6821 76.0054 71.9027 68.8815 71.9027 60.0937C71.9129 51.3097 79.6861 44.1914 89.2773 44.182H89.2784ZM89.2784 69.403C94.8928 69.403 99.4441 65.2351 99.4441 60.0937C99.4441 54.9524 94.8928 50.7845 89.2784 50.7845C83.6639 50.7845 79.1126 54.9523 79.1126 60.0937C79.1187 65.2328 83.6664 69.3973 89.2778 69.4029H89.2784V69.403ZM89.2784 15.825C95.072 15.825 99.7687 20.1259 99.7687 25.4314C99.7687 30.7368 95.072 35.0378 89.2784 35.0378C83.4847 35.0378 78.7881 30.7368 78.7881 25.4312C78.7942 20.1282 83.4873 15.8306 89.2777 15.8249L89.2784 15.825ZM89.2784 28.4354C91.0902 28.4354 92.5589 27.0904 92.5589 25.4314C92.5589 23.7723 91.0901 22.4274 89.2784 22.4274C87.4666 22.4274 85.9979 23.7724 85.9979 25.4314C85.9999 27.0899 87.4675 28.4337 89.2781 28.4356H89.2784V28.4354ZM58.3121 72.5391C64.1058 72.5391 68.8024 76.84 68.8024 82.1455C68.8024 87.451 64.1058 91.7519 58.3121 91.7519C52.5185 91.7519 47.8218 87.4509 47.8218 82.1454C47.828 76.8423 52.521 72.5447 58.3115 72.539L58.3121 72.5391ZM58.3121 85.1497C60.1239 85.1497 61.5926 83.8046 61.5926 82.1456C61.5926 80.4865 60.1238 79.1415 58.3121 79.1415C56.5003 79.1415 55.0316 80.4865 55.0316 82.1456C55.0337 83.804 56.5012 85.1478 58.3119 85.1497H58.3121ZM120.245 72.5391C126.038 72.5391 130.735 76.84 130.735 82.1455C130.735 87.451 126.038 91.7519 120.245 91.7519C114.451 91.7519 109.754 87.451 109.754 82.1455C109.761 76.8423 114.454 72.5447 120.244 72.5391H120.245ZM120.245 85.1497C122.056 85.1497 123.525 83.8046 123.525 82.1456C123.525 80.4865 122.056 79.1415 120.245 79.1415C118.433 79.1415 116.964 80.4865 116.964 82.1456C116.966 83.804 118.434 85.1478 120.244 85.1497H120.245ZM65.9726 80.8845L61.5385 75.6817L76.1745 65.217L80.6085 70.4197L65.9726 80.8845ZM112.584 80.8845L97.9482 70.4197L102.382 65.217L117.018 75.6817L112.584 80.8845ZM92.8834 47.4833H85.6735V31.7366H92.8832L92.8834 47.4833Z" fill="#313035"/>
<path d="M0.38157 167.964V153.964H12.1616V156.864H3.68157V165.064H12.3616V167.964H0.38157ZM2.14157 162.224V159.464H11.2616V162.224H2.14157ZM26.6053 167.964L23.1053 163.804L22.4453 163.044L17.4653 157.344H21.6653L24.6653 161.064L25.3453 161.884L30.7653 167.964H26.6053ZM17.0653 167.964L22.2053 161.944L24.3453 163.844L21.1853 167.964H17.0653ZM25.5053 163.364L23.4453 161.404L26.6053 157.344H30.7253L25.5053 163.364ZM36.4856 167.964V153.164H39.6456V160.084L38.7456 160.364C38.8923 159.777 39.199 159.244 39.6656 158.764C40.1456 158.284 40.7323 157.89 41.4256 157.584C42.119 157.277 42.8723 157.124 43.6856 157.124C44.6723 157.124 45.5056 157.324 46.1856 157.724C46.8656 158.11 47.3723 158.644 47.7056 159.324C48.0523 159.99 48.2256 160.744 48.2256 161.584V167.964H45.0256V162.264C45.0256 161.757 44.919 161.324 44.7056 160.964C44.4923 160.59 44.199 160.31 43.8256 160.124C43.4523 159.924 43.019 159.817 42.5256 159.804C42.099 159.804 41.7123 159.877 41.3656 160.024C41.0323 160.17 40.739 160.364 40.4856 160.604C40.2323 160.83 40.039 161.097 39.9056 161.404C39.7723 161.71 39.7056 162.037 39.7056 162.384V167.964H38.1056C37.6123 167.964 37.2256 167.964 36.9456 167.964C36.679 167.964 36.5256 167.964 36.4856 167.964ZM55.0636 167.964V157.344H58.2636V167.964H55.0636ZM56.6636 155.104C56.0636 155.104 55.5903 154.964 55.2436 154.684C54.9103 154.39 54.7436 153.977 54.7436 153.444C54.7436 152.964 54.9169 152.57 55.2636 152.264C55.6103 151.957 56.0769 151.804 56.6636 151.804C57.2636 151.804 57.7303 151.95 58.0636 152.244C58.3969 152.524 58.5636 152.924 58.5636 153.444C58.5636 153.937 58.3903 154.337 58.0436 154.644C57.7103 154.95 57.2503 155.104 56.6636 155.104ZM72.277 168.184C71.637 168.184 71.0304 168.104 70.457 167.944C69.8837 167.784 69.3837 167.577 68.957 167.324C68.5304 167.057 68.177 166.77 67.897 166.464C67.617 166.157 67.437 165.864 67.357 165.584L68.357 165.484L68.157 167.944H65.177V153.164H68.397V159.884L67.457 159.784C67.5504 159.464 67.7304 159.15 67.997 158.844C68.277 158.537 68.637 158.257 69.077 158.004C69.517 157.737 70.0104 157.524 70.557 157.364C71.1037 157.204 71.697 157.124 72.337 157.124C73.4304 157.124 74.4104 157.364 75.277 157.844C76.1437 158.31 76.8304 158.964 77.337 159.804C77.8437 160.63 78.097 161.577 78.097 162.644C78.097 163.724 77.8504 164.684 77.357 165.524C76.8637 166.35 76.177 167.004 75.297 167.484C74.417 167.95 73.4104 168.184 72.277 168.184ZM71.577 165.464C72.257 165.464 72.8504 165.344 73.357 165.104C73.8637 164.864 74.257 164.537 74.537 164.124C74.817 163.697 74.957 163.204 74.957 162.644C74.957 162.084 74.8104 161.597 74.517 161.184C74.237 160.757 73.8437 160.43 73.337 160.204C72.8437 159.977 72.257 159.864 71.577 159.864C70.8837 159.864 70.2837 159.977 69.777 160.204C69.2704 160.43 68.8704 160.757 68.577 161.184C68.2837 161.597 68.137 162.084 68.137 162.644C68.137 163.204 68.2837 163.697 68.577 164.124C68.8704 164.537 69.2704 164.864 69.777 165.104C70.2837 165.344 70.8837 165.464 71.577 165.464ZM83.7355 167.964V157.344H86.9355V167.964H83.7355ZM85.3355 155.104C84.7355 155.104 84.2621 154.964 83.9155 154.684C83.5821 154.39 83.4155 153.977 83.4155 153.444C83.4155 152.964 83.5888 152.57 83.9355 152.264C84.2821 151.957 84.7488 151.804 85.3355 151.804C85.9355 151.804 86.4021 151.95 86.7355 152.244C87.0688 152.524 87.2355 152.924 87.2355 153.444C87.2355 153.937 87.0621 154.337 86.7155 154.644C86.3821 154.95 85.9221 155.104 85.3355 155.104ZM95.0089 167.964V154.224H98.2089V167.964H95.0089ZM92.2689 160.144V157.344H101.429V160.144H92.2689ZM107.232 167.964V157.344H110.432V167.964H107.232ZM108.832 155.104C108.232 155.104 107.758 154.964 107.412 154.684C107.078 154.39 106.912 153.977 106.912 153.444C106.912 152.964 107.085 152.57 107.432 152.264C107.778 151.957 108.245 151.804 108.832 151.804C109.432 151.804 109.898 151.95 110.232 152.244C110.565 152.524 110.732 152.924 110.732 153.444C110.732 153.937 110.558 154.337 110.212 154.644C109.878 154.95 109.418 155.104 108.832 155.104ZM122.885 168.164C121.538 168.164 120.345 167.93 119.305 167.464C118.265 166.984 117.452 166.33 116.865 165.504C116.292 164.664 116.005 163.71 116.005 162.644C116.005 161.564 116.292 160.61 116.865 159.784C117.452 158.957 118.265 158.31 119.305 157.844C120.345 157.364 121.538 157.124 122.885 157.124C124.245 157.124 125.438 157.364 126.465 157.844C127.492 158.31 128.298 158.957 128.885 159.784C129.472 160.61 129.765 161.564 129.765 162.644C129.765 163.71 129.472 164.664 128.885 165.504C128.298 166.33 127.492 166.984 126.465 167.464C125.438 167.93 124.245 168.164 122.885 168.164ZM122.905 165.404C123.585 165.404 124.192 165.29 124.725 165.064C125.272 164.824 125.712 164.497 126.045 164.084C126.378 163.67 126.532 163.19 126.505 162.644C126.532 162.097 126.378 161.617 126.045 161.204C125.712 160.777 125.272 160.45 124.725 160.224C124.192 159.984 123.585 159.864 122.905 159.864C122.225 159.864 121.605 159.984 121.045 160.224C120.485 160.45 120.045 160.777 119.725 161.204C119.405 161.617 119.252 162.097 119.265 162.644C119.252 163.19 119.405 163.67 119.725 164.084C120.045 164.497 120.485 164.824 121.045 165.064C121.605 165.29 122.225 165.404 122.905 165.404ZM135.216 167.964V157.344H138.256L138.376 160.084L137.516 160.284C137.729 159.724 138.049 159.21 138.476 158.744C138.916 158.264 139.469 157.877 140.136 157.584C140.803 157.277 141.543 157.124 142.356 157.124C143.356 157.124 144.196 157.317 144.876 157.704C145.556 158.09 146.069 158.624 146.416 159.304C146.776 159.984 146.956 160.757 146.956 161.624V167.964H143.756V162.224C143.756 161.744 143.649 161.324 143.436 160.964C143.223 160.59 142.929 160.31 142.556 160.124C142.183 159.924 141.749 159.824 141.256 159.824C140.803 159.824 140.403 159.904 140.056 160.064C139.709 160.21 139.409 160.41 139.156 160.664C138.916 160.904 138.736 161.164 138.616 161.444C138.496 161.724 138.436 162.004 138.436 162.284V167.964H136.836C136.343 167.964 135.956 167.964 135.676 167.964C135.409 167.964 135.256 167.964 135.216 167.964ZM158.034 168.164C156.741 168.164 155.581 167.997 154.554 167.664C153.527 167.33 152.701 166.837 152.074 166.184L154.014 164.424C154.494 164.864 155.087 165.21 155.794 165.464C156.514 165.704 157.307 165.824 158.174 165.824C158.427 165.824 158.674 165.81 158.914 165.784C159.167 165.744 159.394 165.69 159.594 165.624C159.794 165.557 159.954 165.464 160.074 165.344C160.207 165.224 160.274 165.084 160.274 164.924C160.274 164.657 160.067 164.457 159.654 164.324C159.387 164.217 159.047 164.13 158.634 164.064C158.221 163.997 157.794 163.937 157.354 163.884C156.541 163.737 155.821 163.584 155.194 163.424C154.567 163.25 154.034 163.017 153.594 162.724C153.234 162.457 152.947 162.144 152.734 161.784C152.521 161.41 152.414 160.957 152.414 160.424C152.414 159.904 152.561 159.444 152.854 159.044C153.147 158.644 153.541 158.297 154.034 158.004C154.527 157.71 155.094 157.49 155.734 157.344C156.387 157.197 157.074 157.124 157.794 157.124C158.461 157.124 159.134 157.184 159.814 157.304C160.494 157.424 161.141 157.604 161.754 157.844C162.367 158.07 162.907 158.37 163.374 158.744L161.754 160.704C161.434 160.477 161.047 160.264 160.594 160.064C160.141 159.864 159.647 159.71 159.114 159.604C158.594 159.484 158.067 159.424 157.534 159.424C157.281 159.424 157.034 159.437 156.794 159.464C156.567 159.49 156.354 159.537 156.154 159.604C155.954 159.657 155.794 159.744 155.674 159.864C155.567 159.97 155.514 160.097 155.514 160.244C155.514 160.35 155.547 160.45 155.614 160.544C155.681 160.624 155.774 160.704 155.894 160.784C156.121 160.917 156.454 161.03 156.894 161.124C157.347 161.217 157.854 161.31 158.414 161.404C159.387 161.577 160.214 161.77 160.894 161.984C161.574 162.197 162.114 162.464 162.514 162.784C162.834 163.024 163.067 163.297 163.214 163.604C163.374 163.91 163.454 164.257 163.454 164.644C163.454 165.35 163.221 165.97 162.754 166.504C162.301 167.024 161.667 167.43 160.854 167.724C160.041 168.017 159.101 168.164 158.034 168.164Z" fill="black"/>
</svg>
