<svg width="95" height="86" viewBox="0 0 95 86" fill="none" xmlns="http://www.w3.org/2000/svg">
<path d="M51.7431 13.1275C45.7809 13.1275 41.461 13.8017 37.9994 19.4268C35.4301 23.6019 31.0019 28.9357 33.9908 34.3158C38.0603 41.6409 65.6247 45.3081 66.5685 35.3975C66.9246 31.6589 67.2346 27.313 64.3416 24.5807C62.7765 23.1025 60.323 23.1983 58.8695 22.0355C55.4273 19.2818 42.2298 20.4825 38.5084 22.29C33.0651 24.9339 33.03 34.0521 37.9994 36.2883C46.7598 40.2305 54.8934 39.6283 64.7233 39.4697C73.7783 39.3237 70.2981 23.6654 66.0595 19.4268C59.3871 12.7543 44.1008 14.2729 35.836 14.2729C30.9129 14.2729 27.1573 14.2332 26.6099 20.2539C26.0717 26.1738 25.8237 33.5823 27.1826 39.4061C28.5107 45.098 43.7845 59.8995 50.0252 53.6588C53.4871 50.1969 56.3617 45.5475 59.5058 41.7603C62.8152 37.774 67.9258 33.6536 67.7775 28.0166C67.4673 16.2309 54.3789 17.6078 46.3983 17.7088C37.0927 17.8266 12.1405 23.331 23.6194 37.4336C31.3748 46.9617 51.5398 52.4909 62.6872 48.6322C66.9019 47.1733 68.3697 41.5706 68.9228 37.5609C69.9237 30.3045 70.6035 26.5226 64.9778 21.272C58.2268 14.971 36.5903 16.3002 31.1912 23.499C27.5066 28.4118 28.0592 40.9127 35.8997 41.6967C47.6979 42.8765 62.1807 44.5415 64.2143 29.7982C66.4916 13.2877 54.9647 9.71613 41.3081 16.309C32.391 20.6138 21.3972 36.575 34.818 41.7603C41.5131 44.3471 50.2251 42.9879 57.2152 42.9056C64.287 42.8224 70.9156 42.2751 72.1042 34.2522C74.3146 19.3322 56.5737 17.7665 46.5256 19.9994C39.3983 21.5833 17.7511 41.5588 33.4818 46.278C45.6631 49.9323 65.5517 49.0589 66.5685 33.2978C67.7985 14.2343 42.4227 14.6046 29.7277 17.8361C24.2679 19.2258 4.80562 31.0566 20.6925 35.3339C28.0969 37.3274 46.0488 24.8167 40.9263 16.0545C38.3232 11.6018 18.5446 34.2113 18.7836 39.4697C19.224 49.1593 68.9616 50.2038 61.351 24.8352C58.7858 16.2846 45.5643 15.6805 38.6357 17.8361C18.1192 24.219 25.0092 60.3984 45.8257 46.0871C53.1376 41.0601 56.7725 30.1603 54.9246 21.8446C52.1035 9.15011 35.3893 12.3547 27.8825 19.2359C23.0956 23.6238 16.1906 37.6622 25.5919 41.1877C34.1976 44.4148 47.313 44.2188 55.7517 40.9968C64.3795 37.7025 70.8471 30.2109 66.1232 20.763C60.8239 10.1644 41.8936 11.1466 32.6546 13.6366C24.2798 15.8936 11.8134 24.1586 11.6572 33.9977C11.5119 43.1548 16.0205 48.4241 25.7827 46.9779C35.5039 45.5377 52.5653 41.7574 57.4697 32.0888C62.7965 21.5874 56.6019 11.4177 44.235 13.8911C35.7508 15.5879 26.0822 27.5525 33.9272 35.3975C39.7284 41.1987 54.5234 44.8244 61.1601 38.7062C66.9514 33.3674 68.4225 22.764 58.4241 21.3356C48.302 19.8896 39.8694 24.5228 35.836 33.934C33.3603 39.7109 30.6679 54.2855 41.499 48.3777C48.4435 44.5898 55.022 38.4141 59.0604 31.5798C68.29 15.9605 25.2972 13.0777 29.0914 35.8429C31.059 47.6483 77.7921 34.4706 65.9323 14.4001C59.8361 4.08361 43.6536 13.5392 38.3812 19.2359C34.9302 22.9645 28.22 35.6349 33.6727 40.3605C39.544 45.449 50.1613 40.4063 54.161 35.652C61.4318 27.0094 58.6381 17.2463 46.6529 16.6907C39.5607 16.362 32.615 19.1191 28.3279 24.8352C25.7198 28.3126 21.1987 35.2366 23.3649 39.8515C27.0968 47.8022 52.9672 41.8087 58.2332 38.5789C64.6885 34.6197 62.9764 22.5006 56.0699 20.2539C42.8735 15.9612 23.9153 21.7689 19.6744 36.0338C12.9936 58.5057 50.4706 52.0432 50.4706 31.8979C50.4706 25.6633 44.0405 15.4212 36.7905 21.4629C32.5228 25.0192 30.8619 31.4397 31.382 36.7973C31.9952 43.1129 38.6518 43.7044 43.7896 43.8601C50.5946 44.0663 65.0487 42.1451 61.86 31.5162C59.1519 22.4889 40.644 28.4316 38.063 35.2066C34.4224 44.7631 34.2771 53.8715 46.3347 55.2496C55.7332 56.3237 61.4029 47.3733 61.7328 38.9607C62.6039 16.7477 22.8957 28.913 28.2006 46.5961C31.6371 58.0511 48.1129 47.1312 51.7431 41.8876C53.8245 38.8812 58.7699 31.3744 56.8334 27.3803C53.923 21.3777 44.8673 19.8413 39.1447 21.272C25.3404 24.7231 9.46948 37.584 17.8928 53.468C25.1808 67.2111 41.6109 48.4053 46.7801 41.8876C51.7567 35.6127 56.716 25.2801 46.0166 22.7991C37.9819 20.936 30.7421 27.1854 29.0914 34.8885C26.7932 45.6137 45.0184 40.5179 50.0888 38.6425C55.3224 36.7068 66.5559 32.913 68.541 26.8713C70.662 20.416 58.7027 21.292 56.0062 21.5265C43.1472 22.6447 33.5399 29.9799 27.7552 41.1877C25.4129 45.7259 25.5199 59.8058 34.2453 55.5677C41.8846 51.8572 53.8387 35.8591 49.5798 26.4895C44.4569 15.2192 25.7568 23.0275 20.947 29.9891C11.084 44.2644 20.8247 47.7133 33.3545 51.5591C46.3584 55.5504 65.8514 61.186 66.5685 41.824C66.871 33.6579 63.8728 29.0171 55.5608 28.2711C45.0825 27.3308 38.213 31.4345 31.7638 39.3425C28.7278 43.0652 17.4662 58.5136 26.419 62.1214C35.8892 65.9378 43.584 59.9278 48.3072 51.8136C53.131 43.5266 54.2348 30.6099 51.4886 21.5265C48.8553 12.8163 36.0088 16.6743 31.6366 21.6538C22.2144 32.3845 33.2368 35.3125 43.0897 35.7793C46.9177 35.9606 93.0875 39.6658 89.0294 27.7621C87.2509 22.5453 75.6417 24.5807 72.1679 24.5807C62.9208 24.5807 53.4641 24.0607 44.235 24.8352C40.4198 25.1553 17.0628 30.5229 26.1645 38.3244C31.011 42.4785 37.4442 42.9056 43.4714 42.9056C53.6084 42.9056 71.7535 45.9322 77.5763 35.143C86.794 18.0631 41.731 16.6992 35.9633 33.3614C32.6472 42.9411 35.6273 48.288 45.5075 49.523C55.1277 50.7255 68.9084 51.502 77.958 48.3777C84.6408 46.0705 84.7536 36.0774 81.9666 30.9435C76.9583 21.7177 61.5933 21.0356 52.443 21.3356C25.136 22.2309 39.6956 58.2467 55.0518 43.9873C58.9852 40.3349 63.3232 32.9013 62.4963 27.4439C60.5659 14.7031 40.0223 19.3576 32.6546 22.9263C25.5572 26.3641 17.8841 35.9575 23.4921 44.1146C28.4674 51.3514 42.299 60.3051 51.0432 54.7405C57.7788 50.4542 56.4899 40.3565 56.3244 33.4886C56.0328 21.3879 47.0038 19.759 36.4723 24.5807C26.9844 28.9245 30.1425 41.7781 38.1267 45.4508C47.1773 49.6141 70.0073 58.5074 77.8308 47.2324C83.0269 39.7439 76.7195 29.0448 68.9228 27.3803C60.9707 25.6827 52.0175 25.7388 43.9805 25.9805C35.5673 26.2335 22.1734 26.0492 16.7475 34.1249C11.8842 41.3634 22.0065 48.6736 26.2918 52.9589C34.385 61.0521 42.9339 66.8927 54.67 67.848C63.0326 68.5287 62.0509 59.9056 62.0509 53.7225C62.0509 41.5434 63.4238 28.547 60.2057 16.6907C57.4814 6.65389 53.665 2.38686 44.235 8.67356C36.772 13.6489 27.4351 20.7154 24.8919 29.7982C18.3794 53.0574 50.6775 47.8619 63.6416 45.1326C72.0866 43.3548 79.3783 36.2597 73.3768 27.5076C68.3457 20.1706 60.1635 17.8361 51.5522 17.8361C41.4191 17.8361 24.6198 22.6247 21.0742 33.6159C17.142 45.8058 19.4346 64.5572 25.1465 75.7379C30.5305 86.277 47.751 74.999 55.1791 72.6837C66.5396 69.1428 76.2114 58.3305 80.7577 47.6141C90.0009 25.8266 50.54 27.0094 39.0175 29.1619C32.2917 30.4184 28.2605 38.8072 33.0364 44.56C38.9356 51.6659 44.5914 53.6564 53.5247 53.2134C67.1394 52.5383 86.4315 45.7868 89.6657 30.4981C92.3238 17.9326 75.0832 18.8541 67.2685 18.8541C55.2668 18.8541 35.652 22.9693 31.2548 36.161C28.3602 44.8448 32.2379 47.9952 39.1447 52.7044C47.414 58.3425 55.9029 62.6215 66.3777 62.1851C78.8708 61.6645 76.998 48.0371 71.7861 40.106C61.1887 23.9795 31.9446 40.7585 33.4818 57.6674C34.6582 70.6077 55.1598 52.9725 56.0699 45.578C57.9431 30.3579 40.0049 30.5377 29.0914 31.707C19.2212 32.7646 9.95911 37.2179 11.9117 47.8687C12.8799 53.1497 20.2271 56.252 25.0192 54.995C34.1177 52.6085 36.9599 41.7212 36.8541 33.3614C36.5555 9.77384 -11.2229 45.3401 11.1482 59.5763C18.287 64.1192 31.7526 66.0573 40.0355 67.2753C48.7637 68.5589 48.3072 56.5245 48.3072 50.9865C48.3072 41.8992 46.7718 38.52 36.5359 39.7242C23.3983 41.2698 14.1967 50.512 16.8748 64.2848C20.1912 81.3409 65.8343 59.8298 69.3046 49.6503C77.2901 26.226 44.8386 19.696 38.063 40.8695C35.9226 47.5584 32.6283 59.7285 39.8446 64.5393C45.7945 68.5059 53.6425 68.5643 58.9331 63.5849C69.67 53.4796 61.4648 28.9262 47.1619 43.6056C43.6416 47.2185 29.9014 72.3129 44.5531 69.0569C54.3499 66.8799 69.9762 50.0317 71.1498 39.4697C71.7005 34.5134 66.1787 32.4293 61.7964 32.5978C50.4017 33.0361 44.8535 44.704 43.0897 54.3588C42.3302 58.5159 40.4328 66.0098 46.2711 65.8119C54.2918 65.54 61.2837 55.3474 65.4869 49.523C67.8586 46.2365 77.3656 32.7953 68.7955 30.3072C59.5752 27.6304 51.0793 32.6274 47.6709 41.3786C46.2288 45.0814 41.67 60.2049 47.2891 62.3759C54.0173 64.9754 58.793 61.677 64.087 57.7947C70.1949 53.3156 74.9209 34.8628 63.8325 33.8068C58.0082 33.2521 53.6968 38.2445 50.4706 42.5875C46.7596 47.583 36.3036 59.6263 40.4173 66.3845C50.3137 82.6429 66.6639 48.6005 72.995 42.2694C81.5941 33.6703 73.8814 38.3589 69.5591 43.6692C66.1662 47.8376 64.2461 51.8475 62.0509 56.6494C61.5676 57.7066 59.4177 65.546 60.5239 64.7938C64.5766 62.0379 67.9503 54.6495 70.0681 50.4138C71.4939 47.5622 71.1708 42.4392 73.2495 40.3605C74.3251 39.2849 64.4915 64.1202 61.1601 62.1214C60.3291 61.6228 70.9861 46.4688 74.0131 46.4688C77.3345 46.4688 68.5918 60.3146 67.7775 61.7397C66.856 63.3522 63.6179 62.2691 63.2599 60.658C62.4607 57.0615 63.3039 51.6313 65.5505 48.8231C67.9877 45.7766 71.7704 44.6483 74.0131 41.124C75.4179 38.9164 74.9824 35.6634 76.3673 33.1705C78.6661 29.0326 80.6065 26.6407 83.8118 23.4354C84.6967 22.5505 66.5371 24.2209 62.9417 25.726C48.1545 31.916 35.2091 43.4427 19.2926 47.2324C14.5275 48.3669 -0.0995921 53.2134 12.8025 53.2134C13.6482 53.2134 28.3301 53.7999 22.4104 56.0767C19.4753 57.2056 9.84863 56.6494 12.9934 56.6494C17.3681 56.6494 21.485 55.5041 25.8464 55.5041C34.6631 55.5041 33.4181 66.0101 33.4181 72.1111C33.4181 76.1082 26.2037 80.1481 25.4646 74.9744C24.5241 68.3911 60.4575 59.8301 34.818 77.265C34.0195 77.808 29.7823 78.9125 31.1275 78.1558C34.2161 76.4185 36.3314 72.8179 39.1447 70.6476C43.3446 67.4077 47.3687 63.9478 51.4886 60.5943C59.7296 53.8866 62.8532 42.1191 69.9409 34.1249C70.559 33.4277 80.0093 21.4167 80.3759 28.0166C80.4109 28.6456 80.4028 33.9507 82.412 32.3433C85.4692 29.8976 85.8037 22.2111 82.6665 20.8902C76.2162 18.1743 69.5988 31.4525 74.6494 31.4525C77.457 31.4525 83.3616 26.8713 78.0853 26.8713" stroke="#B1A9D0" stroke-width="10" stroke-linecap="round"/>
<path d="M68.5053 20.1828H26.623C25.6157 20.1828 24.802 20.9965 24.802 22.0038V63.8861C24.802 64.8933 25.6157 65.707 26.623 65.707H68.5053C69.5125 65.707 70.3262 64.8933 70.3262 63.8861V22.0038C70.3262 20.9965 69.5125 20.1828 68.5053 20.1828ZM66.6843 62.0651H56.208V48.0778H62.1262L63.0139 41.2093H56.208V36.8219C56.208 34.8302 56.76 33.4759 59.611 33.4759H63.2472V27.3301C62.6156 27.2447 60.4589 27.057 57.9436 27.057C52.697 27.057 49.1062 30.2607 49.1062 36.139V41.2036H43.1767V48.0721H49.1119V62.0651H28.4439V23.8247H66.6843V62.0651Z" fill="black"/>
</svg>
