<svg width="93" height="82" viewBox="0 0 93 82" fill="none" xmlns="http://www.w3.org/2000/svg">
<path d="M50.461 12.3378C44.7564 12.3378 40.6232 12.9828 37.3112 18.3648C34.8529 22.3595 30.6161 27.4628 33.4758 32.6104C37.3695 39.6189 63.7426 43.1277 64.6457 33.6454C64.9863 30.0683 65.283 25.9102 62.5149 23.296C61.0175 21.8817 58.6701 21.9734 57.2794 20.8608C53.986 18.2261 41.3587 19.375 37.7982 21.1044C32.5902 23.634 32.5566 32.3581 37.3112 34.4976C45.693 38.2695 53.4751 37.6933 62.8802 37.5416C71.5439 37.4018 68.2141 22.4202 64.1587 18.3648C57.7745 11.9807 43.1489 13.4337 35.2413 13.4337C30.531 13.4337 26.9376 13.3957 26.4139 19.1562C25.899 24.8203 25.6617 31.9086 26.9618 37.4807C28.2326 42.9267 42.8463 57.0885 48.8173 51.1175C52.1296 47.8052 54.88 43.3567 57.8882 39.7332C61.0545 35.9192 65.9443 31.9768 65.8024 26.5834C65.5056 15.3071 52.9828 16.6245 45.3472 16.7211C36.4437 16.8338 12.5699 22.1003 23.5526 35.5935C30.9729 44.7098 50.2664 50 60.9321 46.3081C64.9646 44.9122 66.369 39.5517 66.8982 35.7152C67.8558 28.7724 68.5062 25.154 63.1237 20.1303C56.6644 14.1016 35.963 15.3734 30.7972 22.2611C27.2718 26.9615 27.8006 38.9222 35.3022 39.6723C46.5906 40.8012 60.4475 42.3942 62.3932 28.288C64.5721 12.4911 53.5433 9.07386 40.4769 15.3818C31.9451 19.5006 21.4265 34.772 34.2673 39.7332C40.6731 42.2082 49.0086 40.9077 55.6965 40.829C62.4627 40.7494 68.8049 40.2257 69.9421 32.5495C72.057 18.2743 55.0828 16.7763 45.4689 18.9127C38.6496 20.4281 17.938 39.5403 32.9888 44.0556C44.6437 47.552 63.6728 46.7164 64.6457 31.6364C65.8224 13.3967 41.5433 13.7511 29.397 16.8429C24.1732 18.1726 5.55196 29.4921 20.7522 33.5845C27.8367 35.4918 45.0128 23.5218 40.1116 15.1383C37.621 10.878 18.6972 32.5104 18.9259 37.5416C19.3473 46.8124 66.9353 47.8118 59.6536 23.5395C57.1993 15.3584 44.5492 14.7805 37.92 16.8429C18.2902 22.9499 24.8824 57.5658 44.7993 43.873C51.7952 39.0633 55.273 28.6345 53.5049 20.6782C50.8058 8.5323 34.8139 11.5984 27.6315 18.1822C23.0515 22.3805 16.4449 35.8122 25.4399 39.1853C33.6737 42.273 46.2223 42.0855 54.2963 39.0027C62.5513 35.8508 68.7393 28.6829 64.2195 19.6433C59.1493 9.50274 41.0372 10.4425 32.1974 12.8249C24.1845 14.9844 12.2569 22.8922 12.1075 32.306C11.9684 41.0674 16.2821 46.109 25.6225 44.7253C34.9236 43.3473 51.2476 39.7304 55.94 30.4797C61.0366 20.4321 55.1098 10.7019 43.2773 13.0684C35.1597 14.6919 25.909 26.1394 33.415 33.6454C38.9654 39.1958 53.1211 42.6648 59.471 36.811C65.012 31.703 66.4195 21.5578 56.8532 20.1912C47.1686 18.8077 39.1004 23.2406 35.2413 32.2451C32.8725 37.7723 30.2966 51.7171 40.6595 46.0646C47.3039 42.4403 53.5981 36.5316 57.462 29.9926C66.2927 15.0484 25.158 12.2902 28.7882 34.0715C30.6707 45.3667 75.3842 32.7585 64.0369 13.5554C58.2042 3.68476 42.721 12.7317 37.6765 18.1822C34.3746 21.7497 27.9545 33.8725 33.1715 38.3939C38.789 43.2625 48.9475 38.4377 52.7744 33.8889C59.7309 25.6198 57.0579 16.2786 45.5907 15.747C38.805 15.4325 32.1595 18.0704 28.0577 23.5395C25.5623 26.8666 21.2366 33.4914 23.3091 37.9069C26.8798 45.514 51.6322 39.7795 56.6706 36.6893C62.8469 32.9011 61.2088 21.3059 54.6007 19.1562C41.9747 15.049 23.8358 20.6057 19.7782 34.2541C13.3861 55.7548 49.2434 49.5717 49.2434 30.297C49.2434 24.3319 43.0912 14.5324 36.1545 20.3129C32.0713 23.7156 30.4822 29.8586 30.9798 34.9847C31.5665 41.0273 37.9355 41.5932 42.8512 41.7422C49.3621 41.9395 63.1915 40.1014 60.1407 29.9318C57.5495 21.2946 39.8415 26.9805 37.3721 33.4627C33.8888 42.6062 33.7498 51.321 45.2863 52.6395C54.2786 53.6672 59.7033 45.1036 60.0189 37.0545C60.8524 15.8016 22.8602 27.4411 27.9359 44.36C31.2239 55.3199 46.9877 44.872 50.461 39.855C52.4524 36.9785 57.1841 29.7961 55.3313 25.9746C52.5467 20.2314 43.8823 18.7615 38.407 20.1303C25.1993 23.4322 10.0143 35.7373 18.0736 50.9349C25.0466 64.0841 40.7666 46.091 45.7124 39.855C50.474 33.8513 55.219 23.9652 44.9819 21.5914C37.2945 19.8088 30.3675 25.7882 28.7882 33.1583C26.5893 43.42 44.0268 38.5445 48.8781 36.7502C53.8855 34.8981 64.6336 31.2682 66.5329 25.4876C68.5623 19.3114 57.1197 20.1495 54.5398 20.3738C42.2365 21.4437 33.0444 28.4618 27.5097 39.1853C25.2687 43.5274 25.371 56.9988 33.7194 52.9439C41.0285 49.3937 52.466 34.087 48.3911 25.1223C43.4896 14.3391 25.5977 21.8099 20.9957 28.4707C11.5591 42.129 20.8788 45.4289 32.8671 49.1085C45.309 52.9273 63.9596 58.3193 64.6457 39.7941C64.9351 31.981 62.0664 27.5407 54.1137 26.8269C44.0882 25.9272 37.5156 29.8536 31.3451 37.4198C28.4403 40.9816 17.6654 55.7624 26.2313 59.2144C35.2922 62.8658 42.6545 57.1155 47.1735 49.352C51.7889 41.4231 52.8449 29.0647 50.2175 20.3738C47.6979 12.0401 35.4066 15.7313 31.2233 20.4956C22.2084 30.7626 32.7544 33.5641 42.1815 34.0106C45.8441 34.1841 90.0185 37.7292 86.1358 26.3399C84.4342 21.3486 73.3267 23.296 70.003 23.296C61.1555 23.296 52.1076 22.7985 43.2773 23.5395C39.627 23.8458 17.2794 28.9815 25.9878 36.4458C30.6248 40.4203 36.78 40.829 42.5468 40.829C52.2456 40.829 69.6066 43.7247 75.1777 33.4018C83.997 17.0601 40.8815 15.7551 35.3631 31.6972C32.1903 40.8629 35.0416 45.9787 44.4949 47.1604C53.6992 48.3109 66.8844 49.0538 75.5429 46.0646C81.9369 43.8571 82.0448 34.2959 79.3783 29.3838C74.5865 20.5568 59.8854 19.9041 51.1306 20.1912C25.0037 21.0478 38.9341 55.5071 53.6267 41.864C57.3901 38.3694 61.5406 31.257 60.7495 26.0355C58.9024 13.8453 39.2467 18.2987 32.1974 21.7131C25.4067 25.0024 18.0653 34.1812 23.4309 41.9857C28.1912 48.9098 41.425 57.4765 49.7913 52.1524C56.2358 48.0514 55.0026 38.39 54.8442 31.819C54.5652 20.2412 45.9265 18.6827 35.8501 23.296C26.7723 27.4521 29.7939 39.7502 37.433 43.2642C46.0925 47.2475 67.9358 55.7565 75.4212 44.9688C80.3927 37.8039 74.358 27.5672 66.8982 25.9746C59.2897 24.3504 50.7235 24.4041 43.0338 24.6353C34.9842 24.8774 22.1691 24.7011 16.9778 32.4278C12.3246 39.3534 22.0094 46.3477 26.1095 50.4478C33.853 58.1913 42.0324 63.7794 53.2614 64.6934C61.2626 65.3447 60.3233 57.0943 60.3233 51.1784C60.3233 39.5256 61.6369 27.0909 58.5578 15.747C55.9513 6.14396 52.2998 2.06134 43.2773 8.07635C36.1368 12.8367 27.2035 19.5978 24.7702 28.288C18.5391 50.5421 49.4413 45.5711 61.8453 42.9598C69.9253 41.2587 76.9018 34.4703 71.1597 26.0964C66.346 19.0765 58.5174 16.8429 50.2783 16.8429C40.5831 16.8429 24.5098 21.4246 21.1175 31.9407C17.3552 43.6038 19.5487 61.5449 25.0137 72.2424C30.1651 82.326 46.6414 71.5354 53.7484 69.3202C64.6179 65.9323 73.8718 55.5873 78.2216 45.334C87.0654 24.4881 49.3098 25.6197 38.2853 27.6792C31.8502 28.8814 27.9932 36.9077 32.5627 42.4119C38.2069 49.2106 43.6183 51.1152 52.1656 50.6914C65.1919 50.0454 83.6502 43.5857 86.7446 28.9577C89.2878 16.9352 72.7923 17.8169 65.3153 17.8169C53.8324 17.8169 35.0653 21.7543 30.8581 34.3759C28.0886 42.6844 31.7987 45.6986 38.407 50.2043C46.3189 55.5988 54.441 59.6928 64.463 59.2752C76.4163 58.7772 74.6244 45.7387 69.6377 38.1504C59.4983 22.7208 31.5181 38.7747 32.9888 54.9529C34.1144 67.3339 53.73 50.4609 54.6007 43.3859C56.393 28.8235 39.23 28.9956 28.7882 30.1144C19.3446 31.1262 10.4827 35.3871 12.351 45.5776C13.2773 50.6304 20.307 53.5986 24.892 52.396C33.5973 50.1126 36.3166 39.6958 36.2154 31.6972C35.9297 9.12908 -9.78389 43.1583 11.6204 56.7792C18.4507 61.1257 31.3344 62.9801 39.2593 64.1455C47.6103 65.3736 47.1735 53.8593 47.1735 48.5606C47.1735 39.866 45.7045 36.6329 35.911 37.7851C23.3411 39.2639 14.5372 48.1066 17.0995 61.2842C20.2726 77.6032 63.9431 57.0217 67.2635 47.2822C74.9039 24.8702 43.8548 18.6224 37.3721 38.8809C35.3241 45.2807 32.1723 56.9248 39.0767 61.5277C44.7694 65.3229 52.2783 65.3788 57.3402 60.6146C67.6131 50.946 59.7625 27.4537 46.0777 41.4987C42.7095 44.9555 29.5632 68.9653 43.5817 65.8501C52.9551 63.7671 67.9061 47.6471 69.0289 37.5416C69.5558 32.7995 64.2726 30.8054 60.0798 30.9667C49.1775 31.386 43.8691 42.5496 42.1815 51.7872C41.4548 55.7647 39.6394 62.9347 45.2254 62.7453C52.8995 62.4852 59.5893 52.733 63.6107 47.1604C65.88 44.0159 74.9761 31.1556 66.7764 28.7751C57.9546 26.2139 49.8258 30.995 46.5647 39.3679C45.1849 42.9107 40.8231 57.3806 46.1995 59.4579C52.6368 61.945 57.2061 58.7891 62.2714 55.0746C68.1153 50.7891 72.6371 33.1338 62.0279 32.1234C56.4552 31.5927 52.3302 36.3693 49.2434 40.5246C45.6928 45.3042 35.6887 56.8271 39.6246 63.2932C49.0933 78.8489 64.7369 46.2778 70.7944 40.2202C79.0218 31.9928 71.6425 36.4787 67.507 41.5596C64.2607 45.5478 62.4236 49.3844 60.3233 53.9788C59.8609 54.9903 57.8038 62.491 58.8622 61.7713C62.7399 59.1345 65.9677 52.0653 67.994 48.0127C69.3582 45.2844 69.049 40.3828 71.0379 38.3939C72.067 37.3648 62.6584 61.1268 59.471 59.2144C58.6759 58.7373 68.8723 44.2382 71.7685 44.2382C74.9463 44.2382 66.5815 57.4856 65.8024 58.8491C64.9207 60.3919 61.8225 59.3556 61.48 57.8141C60.7153 54.3731 61.5221 49.1776 63.6716 46.4907C66.0035 43.5759 69.6227 42.4964 71.7685 39.1244C73.1126 37.0122 72.6959 33.8998 74.021 31.5146C76.2205 27.5556 78.0769 25.267 81.1438 22.2002C81.9904 21.3536 64.6156 22.9518 61.1756 24.3918C47.0274 30.3143 34.6415 41.3429 19.4129 44.9688C14.8537 46.0543 0.858738 50.6914 13.2033 50.6914C14.0124 50.6914 28.0598 51.2525 22.3959 53.4309C19.5876 54.511 10.377 53.9788 13.3859 53.9788C17.5715 53.9788 21.5105 52.883 25.6834 52.883C34.119 52.883 32.9279 62.935 32.9279 68.7723C32.9279 72.5966 26.0253 76.462 25.3181 71.5118C24.4183 65.2131 58.7988 57.022 34.2673 73.7035C33.5033 74.223 29.4492 75.2797 30.7363 74.5558C33.6914 72.8935 35.7153 69.4485 38.407 67.3721C42.4254 64.2722 46.2756 60.9618 50.2175 57.7533C58.1022 51.3354 61.0909 40.0765 67.8722 32.4278C68.4636 31.7607 77.5055 20.2688 77.8563 26.5834C77.8898 27.1852 77.8821 32.2611 79.8044 30.7232C82.7295 28.3831 83.0495 21.0288 80.048 19.765C73.8763 17.1665 67.5449 29.8709 72.3773 29.8709C75.0636 29.8709 80.713 25.4876 75.6647 25.4876" stroke="#C19ABD" stroke-width="10" stroke-linecap="round"/>
<path d="M46.4565 27.782C39.9142 27.782 34.6343 33.062 34.6343 39.6043C34.6343 46.1466 39.9142 51.4266 46.4565 51.4266C52.9989 51.4266 58.2788 46.1466 58.2788 39.6043C58.2788 33.062 52.9989 27.782 46.4565 27.782ZM46.4565 47.2879C42.2257 47.2879 38.7729 43.8352 38.7729 39.6043C38.7729 35.3734 42.2257 31.9207 46.4565 31.9207C50.6874 31.9207 54.1402 35.3734 54.1402 39.6043C54.1402 43.8352 50.6874 47.2879 46.4565 47.2879ZM58.763 24.5425C57.2355 24.5425 56.002 25.7761 56.002 27.3036C56.002 28.8311 57.2355 30.0646 58.763 30.0646C60.2905 30.0646 61.524 28.8368 61.524 27.3036C61.5245 26.9409 61.4534 26.5816 61.3148 26.2464C61.1762 25.9112 60.9728 25.6067 60.7164 25.3502C60.4599 25.0937 60.1553 24.8904 59.8202 24.7518C59.485 24.6132 59.1257 24.5421 58.763 24.5425ZM69.5016 39.6043C69.5016 36.4225 69.5305 33.2695 69.3518 30.0934C69.1731 26.4044 68.3315 23.1303 65.6339 20.4327C62.9305 17.7293 59.6622 16.8935 55.9732 16.7148C52.7913 16.5361 49.6384 16.5649 46.4623 16.5649C43.2805 16.5649 40.1275 16.5361 36.9515 16.7148C33.2624 16.8935 29.9884 17.7351 27.2907 20.4327C24.5873 23.1361 23.7515 26.4044 23.5728 30.0934C23.3942 33.2752 23.423 36.4282 23.423 39.6043C23.423 42.7803 23.3942 45.9391 23.5728 49.1151C23.7515 52.8042 24.5931 56.0782 27.2907 58.7758C29.9941 61.4792 33.2624 62.315 36.9515 62.4937C40.1333 62.6724 43.2863 62.6436 46.4623 62.6436C49.6441 62.6436 52.7971 62.6724 55.9732 62.4937C59.6622 62.315 62.9363 61.4735 65.6339 58.7758C68.3373 56.0725 69.1731 52.8042 69.3518 49.1151C69.5362 45.9391 69.5016 42.7861 69.5016 39.6043ZM64.4292 53.1961C64.0084 54.2452 63.5011 55.0291 62.6884 55.8361C61.8757 56.6489 61.0975 57.1561 60.0484 57.5769C57.0165 58.7816 49.817 58.5107 46.4565 58.5107C43.096 58.5107 35.8908 58.7816 32.8589 57.5827C31.8098 57.1619 31.0259 56.6546 30.2189 55.8419C29.4062 55.0292 28.8989 54.251 28.4781 53.2019C27.2792 50.1642 27.5501 42.9648 27.5501 39.6043C27.5501 36.2438 27.2792 29.0386 28.4781 26.0066C28.8989 24.9576 29.4062 24.1736 30.2189 23.3666C31.0317 22.5597 31.8098 22.0467 32.8589 21.6259C35.8908 20.4269 43.096 20.6978 46.4565 20.6978C49.817 20.6978 57.0222 20.4269 60.0542 21.6259C61.1033 22.0467 61.8872 22.5539 62.6942 23.3666C63.5069 24.1794 64.0142 24.9576 64.4349 26.0066C65.6339 29.0386 65.363 36.2438 65.363 39.6043C65.363 42.9648 65.6339 50.1642 64.4292 53.1961Z" fill="black"/>
</svg>
