<svg width="155" height="185" viewBox="0 0 155 185" fill="none" xmlns="http://www.w3.org/2000/svg">
<path d="M7.46 168.448V154.448H10.86V165.448H19.12V168.448H7.46ZM29.6509 168.648C28.3043 168.648 27.1109 168.415 26.0709 167.948C25.0309 167.468 24.2176 166.815 23.6309 165.988C23.0576 165.148 22.7709 164.195 22.7709 163.128C22.7709 162.048 23.0576 161.095 23.6309 160.268C24.2176 159.442 25.0309 158.795 26.0709 158.328C27.1109 157.848 28.3043 157.608 29.6509 157.608C31.0109 157.608 32.2043 157.848 33.2309 158.328C34.2576 158.795 35.0643 159.442 35.6509 160.268C36.2376 161.095 36.5309 162.048 36.5309 163.128C36.5309 164.195 36.2376 165.148 35.6509 165.988C35.0643 166.815 34.2576 167.468 33.2309 167.948C32.2043 168.415 31.0109 168.648 29.6509 168.648ZM29.6709 165.888C30.3509 165.888 30.9576 165.775 31.4909 165.548C32.0376 165.308 32.4776 164.982 32.8109 164.568C33.1443 164.155 33.2976 163.675 33.2709 163.128C33.2976 162.582 33.1443 162.102 32.8109 161.688C32.4776 161.262 32.0376 160.935 31.4909 160.708C30.9576 160.468 30.3509 160.348 29.6709 160.348C28.9909 160.348 28.3709 160.468 27.8109 160.708C27.2509 160.935 26.8109 161.262 26.4909 161.688C26.1709 162.102 26.0176 162.582 26.0309 163.128C26.0176 163.675 26.1709 164.155 26.4909 164.568C26.8109 164.982 27.2509 165.308 27.8109 165.548C28.3709 165.775 28.9909 165.888 29.6709 165.888ZM47.202 168.648C45.9487 168.648 44.822 168.408 43.822 167.928C42.822 167.448 42.042 166.795 41.482 165.968C40.922 165.128 40.642 164.182 40.642 163.128C40.642 162.062 40.922 161.115 41.482 160.288C42.042 159.462 42.8087 158.808 43.782 158.328C44.7554 157.848 45.842 157.608 47.042 157.608C48.202 157.608 49.2687 157.768 50.242 158.088C51.2287 158.408 52.0487 158.862 52.702 159.448L50.942 161.728C50.6487 161.488 50.302 161.268 49.902 161.068C49.5154 160.855 49.102 160.688 48.662 160.568C48.222 160.448 47.7754 160.388 47.322 160.388C46.6154 160.388 46.0087 160.508 45.502 160.748C45.0087 160.975 44.622 161.295 44.342 161.708C44.062 162.108 43.922 162.582 43.922 163.128C43.922 163.648 44.062 164.122 44.342 164.548C44.622 164.962 45.0154 165.282 45.522 165.508C46.042 165.735 46.6354 165.848 47.302 165.848C47.8754 165.848 48.382 165.795 48.822 165.688C49.2754 165.582 49.6754 165.455 50.022 165.308C50.3687 165.148 50.6887 164.975 50.982 164.788L52.682 167.028C52.002 167.495 51.202 167.882 50.282 168.188C49.362 168.495 48.3354 168.648 47.202 168.648ZM62.1395 168.628C60.9662 168.628 59.9462 168.395 59.0795 167.928C58.2262 167.448 57.5595 166.795 57.0795 165.968C56.5995 165.142 56.3595 164.202 56.3595 163.148C56.3595 162.068 56.6062 161.115 57.0995 160.288C57.5929 159.448 58.2729 158.795 59.1395 158.328C60.0062 157.848 61.0262 157.608 62.1995 157.608C62.8662 157.608 63.4795 157.688 64.0395 157.848C64.6129 158.008 65.1129 158.222 65.5395 158.488C65.9795 158.755 66.3329 159.048 66.5995 159.368C66.8662 159.675 67.0329 159.982 67.0995 160.288L66.3395 160.348V157.828H69.5195V168.448H66.2795V165.608L66.9395 165.788C66.8995 166.135 66.7395 166.475 66.4595 166.808C66.1929 167.142 65.8395 167.448 65.3995 167.728C64.9729 167.995 64.4795 168.215 63.9195 168.388C63.3595 168.548 62.7662 168.628 62.1395 168.628ZM62.9595 165.928C63.6662 165.928 64.2729 165.815 64.7795 165.588C65.2862 165.348 65.6795 165.022 65.9595 164.608C66.2395 164.182 66.3795 163.695 66.3795 163.148C66.3795 162.575 66.2395 162.082 65.9595 161.668C65.6795 161.255 65.2862 160.928 64.7795 160.688C64.2729 160.448 63.6662 160.328 62.9595 160.328C62.2795 160.328 61.6795 160.448 61.1595 160.688C60.6529 160.928 60.2529 161.255 59.9595 161.668C59.6795 162.082 59.5395 162.575 59.5395 163.148C59.5395 163.695 59.6795 164.182 59.9595 164.608C60.2529 165.022 60.6529 165.348 61.1595 165.588C61.6795 165.815 62.2795 165.928 62.9595 165.928ZM77.3217 168.448V154.708H80.5217V168.448H77.3217ZM74.5817 160.628V157.828H83.7417V160.628H74.5817ZM89.5444 168.448V157.828H92.7444V168.448H89.5444ZM91.1444 155.588C90.5444 155.588 90.071 155.448 89.7244 155.168C89.391 154.875 89.2244 154.462 89.2244 153.928C89.2244 153.448 89.3977 153.055 89.7444 152.748C90.091 152.442 90.5577 152.288 91.1444 152.288C91.7444 152.288 92.211 152.435 92.5444 152.728C92.8777 153.008 93.0444 153.408 93.0444 153.928C93.0444 154.422 92.871 154.822 92.5244 155.128C92.191 155.435 91.731 155.588 91.1444 155.588ZM105.198 168.648C103.851 168.648 102.658 168.415 101.618 167.948C100.578 167.468 99.7645 166.815 99.1778 165.988C98.6045 165.148 98.3178 164.195 98.3178 163.128C98.3178 162.048 98.6045 161.095 99.1778 160.268C99.7645 159.442 100.578 158.795 101.618 158.328C102.658 157.848 103.851 157.608 105.198 157.608C106.558 157.608 107.751 157.848 108.778 158.328C109.804 158.795 110.611 159.442 111.198 160.268C111.784 161.095 112.078 162.048 112.078 163.128C112.078 164.195 111.784 165.148 111.198 165.988C110.611 166.815 109.804 167.468 108.778 167.948C107.751 168.415 106.558 168.648 105.198 168.648ZM105.218 165.888C105.898 165.888 106.504 165.775 107.038 165.548C107.584 165.308 108.024 164.982 108.358 164.568C108.691 164.155 108.844 163.675 108.818 163.128C108.844 162.582 108.691 162.102 108.358 161.688C108.024 161.262 107.584 160.935 107.038 160.708C106.504 160.468 105.898 160.348 105.218 160.348C104.538 160.348 103.918 160.468 103.358 160.708C102.798 160.935 102.358 161.262 102.038 161.688C101.718 162.102 101.564 162.582 101.578 163.128C101.564 163.675 101.718 164.155 102.038 164.568C102.358 164.982 102.798 165.308 103.358 165.548C103.918 165.775 104.538 165.888 105.218 165.888ZM117.529 168.448V157.828H120.569L120.689 160.568L119.829 160.768C120.042 160.208 120.362 159.695 120.789 159.228C121.229 158.748 121.782 158.362 122.449 158.068C123.116 157.762 123.856 157.608 124.669 157.608C125.669 157.608 126.509 157.802 127.189 158.188C127.869 158.575 128.382 159.108 128.729 159.788C129.089 160.468 129.269 161.242 129.269 162.108V168.448H126.069V162.708C126.069 162.228 125.962 161.808 125.749 161.448C125.536 161.075 125.242 160.795 124.869 160.608C124.496 160.408 124.062 160.308 123.569 160.308C123.116 160.308 122.716 160.388 122.369 160.548C122.022 160.695 121.722 160.895 121.469 161.148C121.229 161.388 121.049 161.648 120.929 161.928C120.809 162.208 120.749 162.488 120.749 162.768V168.448H119.149C118.656 168.448 118.269 168.448 117.989 168.448C117.722 168.448 117.569 168.448 117.529 168.448Z" fill="black"/>
<path d="M75.9776 17.0378C66.9616 17.0378 60.4291 18.0572 55.1945 26.5634C51.3091 32.8771 44.6129 40.9428 49.1327 49.0786C55.2866 60.1555 96.9692 65.7011 98.3965 50.7143C98.935 45.0608 99.4037 38.489 95.0289 34.3571C92.6622 32.1219 88.9521 32.2668 86.7541 30.5084C81.5489 26.3442 61.5916 28.16 55.9642 30.8933C47.7329 34.8914 47.6798 48.6798 55.1945 52.0613C68.4419 58.0227 80.7414 57.112 95.6062 56.8723C109.299 56.6514 104.036 32.973 97.6268 26.5634C87.5367 16.4734 64.421 18.7698 51.923 18.7698C44.4784 18.7698 38.799 18.7098 37.9714 27.8143C37.1575 36.7663 36.7824 47.9694 38.8373 56.776C40.8457 65.3834 63.9426 87.7661 73.3797 78.329C78.6148 73.0939 82.9618 66.0631 87.7163 60.3361C92.7207 54.3081 100.449 48.0771 100.225 39.5529C99.7557 21.7307 79.9634 23.8128 67.8953 23.9656C53.8234 24.1437 16.0908 32.4674 33.4491 53.7933C45.1768 68.2015 75.6702 76.5628 92.5272 70.7277C98.9006 68.5215 101.12 60.0492 101.957 53.9857C103.47 43.0126 104.498 37.2937 95.9911 29.3538C85.7822 19.8255 53.0636 21.8355 44.8991 32.7214C39.3273 40.1505 40.1629 59.0543 52.0193 60.2399C69.8605 62.024 91.7613 64.5418 94.8364 42.2471C98.2802 17.28 80.8492 11.8791 60.1978 21.8487C46.7134 28.3585 30.0887 52.4949 50.3835 60.3361C60.5079 64.2478 73.6821 62.1924 84.2524 62.0681C94.9464 61.9422 104.97 61.1145 106.768 48.9823C110.11 26.4205 83.2824 24.0528 68.0877 27.4294C57.3098 29.8245 24.5752 60.0313 48.3629 67.1676C66.7834 72.6938 96.8589 71.373 98.3965 47.5391C100.256 18.7114 61.8833 19.2714 42.6861 24.158C34.4298 26.2596 4.99907 44.1501 29.023 50.6181C40.22 53.6326 67.3668 34.714 59.6205 21.4639C55.6841 14.7305 25.7751 48.9206 26.1365 56.8723C26.8025 71.5247 102.015 73.1043 90.5066 34.742C86.6276 21.8118 66.634 20.8984 56.1566 24.158C25.1318 33.8102 35.5507 88.5205 67.0293 66.879C78.0863 59.2773 83.583 42.7946 80.7886 30.2197C76.5227 11.0232 51.2474 15.8691 39.8957 26.2748C32.6571 32.9102 22.2154 54.139 36.4319 59.4701C49.4454 64.3502 69.2785 64.0538 82.0394 59.1815C95.0863 54.1999 104.867 42.8711 97.723 28.584C89.7095 12.5569 61.0833 14.0423 47.1121 17.8076C34.4478 21.2206 15.5962 33.7189 15.36 48.5975C15.1402 62.4448 21.9581 70.4131 36.7205 68.226C51.4209 66.0482 77.2209 60.3318 84.6373 45.7109C92.6924 29.8308 83.3251 14.4522 64.6239 18.1924C51.7941 20.7584 37.1733 38.8511 49.0365 50.7143C57.809 59.4868 80.182 64.9695 90.218 55.7176C98.9754 47.6443 101.2 31.6099 86.0806 29.45C70.774 27.2634 58.0223 34.2696 51.923 48.5013C48.1792 57.2369 44.1078 79.2766 60.4865 70.3428C70.988 64.6147 80.9359 55.2759 87.0428 44.9412C101 21.3218 35.9863 16.9625 41.7239 51.3878C44.6992 69.2399 115.369 49.3126 97.4343 18.9622C88.2158 3.36164 63.7447 17.6604 55.7718 26.2748C50.5532 31.9133 40.4062 51.0733 48.6516 58.2193C57.5302 65.9141 73.5857 58.2886 79.6339 51.0991C90.6287 38.0299 86.4041 23.2662 68.2802 22.4261C57.5554 21.9289 47.0521 26.0982 40.5693 34.742C36.6254 40.0005 29.7886 50.471 33.0642 57.4496C38.7077 69.4726 77.8287 60.4093 85.7919 55.5252C95.5535 49.5381 92.9645 31.2117 82.5205 27.8143C62.5651 21.3228 33.8966 30.1052 27.4836 51.6765C17.3808 85.6583 74.0533 75.8858 74.0533 45.4223C74.0533 35.9943 64.3297 20.5063 53.3663 29.6424C46.9128 35.0204 44.4012 44.7294 45.1877 52.8311C46.115 62.3815 56.1811 63.2759 63.9503 63.5113C74.2409 63.8232 96.0983 60.918 91.2764 44.845C87.1811 31.194 59.1936 40.1804 55.2907 50.4256C49.7854 64.8769 49.5656 78.6506 67.7991 80.7344C82.0113 82.3587 90.585 68.824 91.0839 56.1025C92.4012 22.5123 32.3548 40.9085 40.3768 67.6487C45.5735 84.9709 70.4881 68.4579 75.9776 60.5286C79.1251 55.9822 86.6035 44.6305 83.6751 38.5908C79.2741 29.5136 65.58 27.1904 56.9264 29.3538C36.0516 34.5725 12.0517 54.0206 24.7894 78.0403C35.8103 98.8226 60.6557 70.3846 68.4726 60.5286C75.9982 51.0397 83.4976 35.4148 67.318 31.663C55.168 28.8456 44.22 38.296 41.7239 49.9445C38.2485 66.1631 65.8085 58.4573 73.476 55.6214C81.3901 52.6943 98.3774 46.9572 101.379 37.821C104.587 28.0594 86.5018 29.3841 82.4243 29.7387C62.9789 31.4296 48.4508 42.5218 39.7033 59.4701C36.1613 66.3328 36.323 87.6243 49.5176 81.2155C61.0697 75.6045 79.1465 51.4124 72.7062 37.2437C64.9595 20.2009 36.6813 32.0084 29.4079 42.5357C14.4933 64.1227 29.223 69.3382 48.1705 75.1538C67.8349 81.1894 97.3121 89.7114 98.3965 60.4323C98.8539 48.0837 94.32 41.0658 81.7507 39.9378C65.9056 38.5158 55.5175 44.7214 45.7651 56.6798C41.174 62.3093 24.1444 85.6703 37.6827 91.126C52.0035 96.8971 63.6395 87.8088 70.7818 75.5386C78.0764 63.007 79.7455 43.4746 75.5928 29.7387C71.6107 16.5672 52.1843 22.4012 45.5726 29.9311C31.3245 46.1581 47.9924 50.5858 62.8919 51.2916C68.6806 51.5658 138.498 57.1688 132.362 39.1681C129.672 31.2793 112.117 34.3571 106.864 34.3571C92.8804 34.3571 78.5801 33.5709 64.6239 34.742C58.8546 35.2262 23.5343 43.343 37.2978 55.1403C44.6266 61.4221 54.3549 62.0681 63.4692 62.0681C78.7982 62.0681 106.237 66.6447 115.042 50.3294C128.981 24.5014 60.8373 22.4389 52.1155 47.6353C47.101 62.1216 51.6074 70.2072 66.5482 72.0748C81.0957 73.8932 101.935 75.0674 115.62 70.3428C125.725 66.854 125.896 51.7424 121.681 43.979C114.108 30.0278 90.8729 28.9963 77.036 29.45C35.7425 30.8039 57.7594 85.2667 80.981 63.7038C86.929 58.1806 93.4889 46.9396 92.2386 38.687C89.3194 19.4203 58.2534 26.4589 47.1121 31.8555C36.3794 37.0541 24.7763 51.5611 33.2567 63.8962C40.7803 74.8396 61.6962 88.3793 74.9192 79.9647C85.1047 73.483 83.1556 58.2132 82.9054 47.8277C82.4644 29.5291 68.8109 27.0659 52.8852 34.3571C38.5377 40.9259 43.3133 60.3629 55.3869 65.9168C69.0732 72.2125 103.597 85.6609 115.427 68.6109C123.285 57.2869 113.747 41.1077 101.957 38.5908C89.9314 36.0236 76.3926 36.1084 64.239 36.4739C51.5167 36.8566 31.2624 36.5779 23.0575 48.7899C15.7032 59.7358 31.0101 70.7904 37.4903 77.2706C49.7288 89.509 62.6563 98.3411 80.4037 99.7857C93.0495 100.815 91.565 87.7753 91.565 78.4252C91.565 60.008 93.6411 40.3551 88.7747 22.4261C84.655 7.2484 78.8839 0.795826 64.6239 10.3025C53.3384 17.8262 39.2193 28.5121 35.3735 42.2471C25.5252 77.4195 74.3661 69.5629 93.9705 65.4357C106.741 62.7472 117.767 52.0182 108.692 38.7832C101.084 27.6882 88.7108 24.158 75.689 24.158C60.3657 24.158 34.9619 31.3993 29.6004 48.0202C23.6541 66.4536 27.1209 94.8094 35.7583 111.717C43.9001 127.654 69.9408 110.599 81.1734 107.098C98.3527 101.744 112.978 85.3934 119.853 69.1882C133.831 36.2412 74.1582 38.0298 56.734 41.2849C46.5633 43.1849 40.4674 55.8704 47.6894 64.5697C56.6102 75.3152 65.1628 78.3253 78.6718 77.6554C99.2598 76.6345 128.433 66.4249 133.324 43.3055C137.343 24.3039 111.272 25.6975 99.4549 25.6975C81.3061 25.6975 51.6448 31.9205 44.9953 51.8689C40.6181 65.0004 46.482 69.7645 56.9264 76.8857C69.4311 85.4116 82.268 91.8822 98.1079 91.2222C117 90.4351 114.168 69.8278 106.286 57.8344C90.2611 33.4481 46.0384 58.8211 48.3629 84.3907C50.1419 103.959 81.1443 77.2911 82.5205 66.1092C85.3532 43.0934 58.2271 43.3654 41.7239 45.1336C26.7983 46.7328 12.7921 53.4671 15.7449 69.5731C17.209 77.5591 28.3194 82.2503 35.5659 80.3495C49.3246 76.7407 53.6225 60.277 53.4625 47.6353C53.011 11.9664 -19.2392 65.7494 14.5903 87.2773C25.3855 94.147 45.7481 97.0777 58.2734 98.9197C71.4721 100.861 70.7818 82.6624 70.7818 74.2878C70.7818 60.5461 68.4601 55.4361 52.9814 57.2571C33.1148 59.5944 19.2002 73.5703 23.2499 94.3974C28.2651 120.19 97.2862 87.6606 102.534 72.2672C114.61 36.8452 65.5366 26.9705 55.2907 58.9891C52.0539 69.104 47.0724 87.5074 57.9848 94.7823C66.9821 100.781 78.8499 100.869 86.8503 93.339C103.087 78.0579 90.6787 40.9284 69.0499 63.1265C63.7265 68.5899 42.9487 106.537 65.105 101.614C79.9195 98.3217 103.55 72.844 105.324 56.8723C106.157 49.3774 97.8069 46.2258 91.1802 46.4807C73.9491 47.1434 65.5592 64.7875 62.8919 79.3874C61.7434 85.6738 58.8742 97.006 67.7029 96.7067C79.8317 96.2955 90.4049 80.8823 96.7608 72.0748C100.347 67.1049 114.724 46.7792 101.764 43.0168C87.8213 38.9689 74.9737 46.5254 69.8197 59.7588C67.6389 65.3581 60.7451 88.2279 69.2424 91.5109C79.4166 95.4418 86.6383 90.454 94.644 84.5832C103.88 77.8099 111.027 49.9058 94.2591 48.3088C85.4516 47.47 78.932 55.0194 74.0533 61.587C68.4416 69.1411 52.6301 87.3529 58.8508 97.5726C73.816 122.158 98.5407 70.6798 108.115 61.1059C121.118 48.1024 109.455 55.1924 102.919 63.2227C97.7881 69.5261 94.8845 75.5898 91.565 82.8512C90.8342 84.4499 87.583 96.3047 89.2558 95.1672C95.3844 90.9997 100.486 79.827 103.689 73.4218C105.845 69.1097 105.356 61.3627 108.499 58.2193C110.126 56.5928 95.2556 94.1486 90.218 91.126C88.9613 90.372 105.077 67.4563 109.654 67.4563C114.677 67.4563 101.456 88.3938 100.225 90.5487C98.8313 92.9872 93.9346 91.3493 93.3932 88.913C92.1846 83.4745 93.4597 75.263 96.857 71.0164C100.542 66.4095 106.263 64.7033 109.654 59.3739C111.778 56.0356 111.12 51.1164 113.214 47.3466C116.69 41.0894 119.625 37.4723 124.472 32.6252C125.81 31.2872 98.349 33.8132 92.9121 36.0891C70.5509 45.4496 50.975 62.8802 26.9062 68.6109C19.7005 70.3266 -2.41856 77.6554 17.092 77.6554C18.3708 77.6554 40.5726 78.5423 31.6209 81.9853C27.1824 83.6924 12.6251 82.8512 17.3806 82.8512C23.996 82.8512 30.2216 81.1193 36.8167 81.1193C50.1493 81.1193 48.2667 97.0065 48.2667 106.232C48.2667 112.277 37.3571 118.386 36.2394 110.562C34.8173 100.607 89.1555 87.6611 50.3835 114.026C49.176 114.847 42.7686 116.517 44.8029 115.373C49.4733 112.746 52.6722 107.301 56.9264 104.019C63.2775 99.1199 69.3626 93.8878 75.5928 88.8168C88.0547 78.6734 92.7782 60.8787 103.496 48.7899C104.431 47.7356 118.721 29.5726 119.276 39.5529C119.329 40.504 119.317 48.5264 122.355 46.0958C126.978 42.3974 127.484 30.7739 122.74 28.7765C112.986 24.6694 102.979 44.7487 110.616 44.7487C114.862 44.7487 123.791 37.821 115.812 37.821" stroke="#C19A9A" stroke-width="10" stroke-linecap="round"/>
<path d="M108.715 91.1822L86.2999 85.2971L88.161 79.2871L101.923 82.9V35.6759L82.5642 30.6127L56.6168 36.5509L37.3938 31.516V78.7088L56.7524 83.8001L77.096 79.1121L78.75 85.1753L56.6403 90.2852L30.6014 83.4282V23.2402L56.7526 30.0815L82.6999 24.1434L108.715 30.9411L108.715 91.1822ZM82.2244 54.0685H82.6388C82.7627 54.0653 82.9083 54.0635 83.0545 54.0635C91.6918 54.0635 98.7268 60.3766 99.0081 68.262L99.0089 68.2858V68.3856C99.0089 72.208 96.5771 76.9585 91.7849 82.5092C89.5939 85.0247 87.3649 87.2759 84.9926 89.3917L84.972 89.4099L82.649 91.4289L80.3158 89.4162C77.9144 87.2894 75.6833 85.046 73.6129 82.6785L73.496 82.5404C68.6937 77.0085 66.262 72.2455 66.262 68.3825V68.2825C66.5487 60.3769 73.5818 54.0685 82.216 54.0685H82.2247H82.2243L82.2244 54.0685ZM82.6389 60.3193H82.5267C82.4348 60.3162 82.3268 60.3145 82.2184 60.3145C77.2716 60.3145 73.2397 63.9191 73.0551 68.4297L73.0546 68.4452C73.0987 72.33 78.5532 78.7308 82.6286 82.7219C86.9995 78.4464 92.1653 72.1957 92.2094 68.4452C92.0242 63.9193 87.9923 60.3147 83.0457 60.3147C82.9396 60.3147 82.834 60.3165 82.7287 60.3197L82.7441 60.3193L82.6389 60.3193ZM85.8585 69.1328C85.8585 70.7725 84.414 72.1018 82.632 72.1018C80.85 72.1018 79.4056 70.7725 79.4056 69.1327C79.4056 67.493 80.8501 66.1637 82.632 66.1637C84.4139 66.1637 85.8585 67.493 85.8585 69.1328ZM60.0809 87.0409H53.2883V33.3162H60.0809V87.0409ZM86.0282 57.1938H79.2359V27.3467H86.0282V57.1938Z" fill="#313035"/>
</svg>
