<svg width="92" height="82" viewBox="0 0 92 82" fill="none" xmlns="http://www.w3.org/2000/svg">
<path d="M49.9275 12.3378C44.223 12.3378 40.0897 12.9828 36.7777 18.3648C34.3195 22.3595 30.0826 27.4628 32.9424 32.6104C36.836 39.6189 63.2091 43.1277 64.1122 33.6453C64.4529 30.0683 64.7495 25.9102 61.9815 23.296C60.484 21.8817 58.1366 21.9734 56.7459 20.8608C53.4525 18.2261 40.8253 19.375 37.2648 21.1044C32.0567 23.634 32.0231 32.3581 36.7777 34.4976C45.1595 38.2695 52.9416 37.6933 62.3467 37.5416C71.0104 37.4018 67.6806 22.4202 63.6252 18.3648C57.2411 11.9807 42.6155 13.4337 34.7079 13.4337C29.9975 13.4337 26.4042 13.3957 25.8805 19.1562C25.3656 24.8203 25.1282 31.9086 26.4284 37.4807C27.6991 42.9267 42.3128 57.0885 48.2838 51.1175C51.5961 47.8052 54.3465 43.3567 57.3547 39.7332C60.521 35.9192 65.4108 31.9768 65.2689 26.5834C64.9722 15.3071 52.4494 16.6244 44.8137 16.7211C35.9103 16.8338 12.0364 22.1003 23.0192 35.5935C30.4394 44.7097 49.733 50 60.3986 46.3081C64.4311 44.9122 65.8355 39.5517 66.3647 35.7152C67.3223 28.7724 67.9728 25.154 62.5902 20.1303C56.131 14.1016 35.4295 15.3734 30.2637 22.261C26.7384 26.9615 27.2671 38.9222 34.7687 39.6723C46.0571 40.8012 59.914 42.3942 61.8597 28.288C64.0386 12.4911 53.0098 9.07386 39.9434 15.3818C31.4117 19.5005 20.893 34.772 33.7338 39.7332C40.1396 42.2082 48.4751 40.9077 55.1631 40.829C61.9293 40.7494 68.2714 40.2257 69.4086 32.5495C71.5235 18.2743 54.5493 16.7763 44.9355 18.9127C38.1161 20.4281 17.4046 39.5403 32.4554 44.0556C44.1102 47.552 63.1393 46.7164 64.1122 31.6363C65.289 13.3967 41.0099 13.7511 28.8635 16.8429C23.6397 18.1726 5.01851 29.4921 20.2188 33.5845C27.3032 35.4918 44.4793 23.5218 39.5782 15.1383C37.0875 10.878 18.1637 32.5104 18.3924 37.5416C18.8138 46.8123 66.4019 47.8118 59.1202 23.5395C56.6658 15.3584 44.0157 14.7804 37.3865 16.8429C17.7567 22.9499 24.3489 57.5658 44.2658 43.8729C51.2617 39.0633 54.7395 28.6345 52.9714 20.6782C50.2723 8.5323 34.2804 11.5984 27.0981 18.1822C22.5181 22.3805 15.9115 35.8122 24.9064 39.1853C33.1403 42.273 45.6889 42.0854 53.7629 39.0027C62.0178 35.8508 68.2059 28.6829 63.6861 19.6433C58.6158 9.50274 40.5037 10.4425 31.6639 12.8249C23.6511 14.9844 11.7234 22.8922 11.574 32.306C11.4349 41.0674 15.7487 46.109 25.0891 44.7252C34.3901 43.3473 50.7142 39.7304 55.4066 30.4797C60.5032 20.4321 54.5763 10.7019 42.7438 13.0684C34.6263 14.6919 25.3756 26.1394 32.8815 33.6453C38.432 39.1958 52.5877 42.6648 58.9375 36.811C64.4785 31.703 65.8861 21.5578 56.3198 20.1912C46.6351 18.8077 38.5669 23.2406 34.7079 32.2451C32.3391 37.7723 29.7631 51.7171 40.1261 46.0646C46.7705 42.4403 53.0646 36.5316 56.9285 29.9926C65.7593 15.0483 24.6245 12.2902 28.2547 34.0715C30.1373 45.3667 74.8507 32.7585 63.5034 13.5554C57.6708 3.68476 42.1876 12.7317 37.143 18.1822C33.8412 21.7497 27.421 33.8725 32.638 38.3939C38.2556 43.2624 48.4141 38.4377 52.2409 33.8889C59.1974 25.6198 56.5245 16.2786 45.0572 15.747C38.2716 15.4325 31.626 18.0704 27.5242 23.5395C25.0289 26.8666 20.7031 33.4914 22.7757 37.9068C26.3464 45.514 51.0987 39.7795 56.1371 36.6893C62.3134 32.9011 60.6753 21.3059 54.0673 19.1562C41.4412 15.049 23.3024 20.6057 19.2447 34.2541C12.8526 55.7548 48.7099 49.5716 48.7099 30.297C48.7099 24.3318 42.5577 14.5324 35.621 20.3129C31.5378 23.7156 29.9487 29.8586 30.4464 34.9847C31.033 41.0273 37.402 41.5932 42.3177 41.7422C48.8286 41.9395 62.6581 40.1013 59.6072 29.9317C57.0161 21.2946 39.308 26.9804 36.8386 33.4627C33.3554 42.6062 33.2163 51.321 44.7528 52.6394C53.7451 53.6671 59.1698 45.1036 59.4854 37.0545C60.3189 15.8016 22.3268 27.4411 27.4024 44.36C30.6904 55.3199 46.4542 44.8719 49.9275 39.855C51.9189 36.9784 56.6506 29.7961 54.7978 25.9746C52.0132 20.2314 43.3488 18.7615 37.8736 20.1303C24.6658 23.4322 9.48082 35.7373 17.5401 50.9348C24.5132 64.084 40.2332 46.091 45.179 39.855C49.9405 33.8513 54.6855 23.9652 44.4484 21.5914C36.761 19.8088 29.8341 25.7882 28.2547 33.1583C26.0558 43.42 43.4934 38.5445 48.3447 36.7501C53.3521 34.8981 64.1001 31.2682 65.9994 25.4876C68.0288 19.3113 56.5863 20.1495 54.0064 20.3738C41.7031 21.4437 32.511 28.4618 26.9763 39.1853C24.7352 43.5274 24.8375 56.9988 33.1859 52.9438C40.4951 49.3937 51.9325 34.087 47.8576 25.1223C42.9562 14.3391 25.0643 21.8099 20.4623 28.4707C11.0256 42.129 20.3453 45.4289 32.3336 49.1085C44.7755 52.9273 63.4261 58.3193 64.1122 39.7941C64.4016 31.981 61.533 27.5406 53.5802 26.8269C43.5548 25.9272 36.9822 29.8536 30.8116 37.4198C27.9069 40.9816 17.132 55.7624 25.6978 59.2143C34.7588 62.8658 42.121 57.1155 46.6401 49.352C51.2554 41.4231 52.3115 29.0647 49.684 20.3738C47.1645 12.0401 34.8732 15.7313 30.6899 20.4956C21.675 30.7626 32.2209 33.5641 41.648 34.0106C45.3106 34.1841 89.485 37.7292 85.6023 26.3399C83.9008 21.3486 72.7932 23.296 69.4695 23.296C60.6221 23.296 51.5741 22.7985 42.7438 23.5395C39.0936 23.8458 16.746 28.9814 25.4543 36.4458C30.0913 40.4203 36.2466 40.829 42.0133 40.829C51.7121 40.829 69.0731 43.7247 74.6442 33.4018C83.4635 17.0601 40.348 15.7551 34.8296 31.6972C31.6569 40.8629 34.5081 45.9787 43.9614 47.1604C53.1658 48.3109 66.3509 49.0538 75.0095 46.0646C81.4034 43.8571 81.5113 34.2958 78.8448 29.3838C74.053 20.5568 59.3519 19.9041 50.5972 20.1912C24.4703 21.0478 38.4006 55.507 53.0932 41.8639C56.8566 38.3694 61.0071 31.257 60.216 26.0355C58.369 13.8453 38.7132 18.2987 31.6639 21.7131C24.8733 25.0024 17.5318 34.1812 22.8974 41.9857C27.6577 48.9097 40.8915 57.4765 49.2578 52.1524C55.7023 48.0514 54.4691 38.39 54.3108 31.819C54.0318 20.2412 45.393 18.6827 35.3167 23.296C26.2388 27.4521 29.2604 39.7502 36.8995 43.2642C45.559 47.2475 67.4024 55.7565 74.8877 44.9687C79.8592 37.8039 73.8245 27.5672 66.3647 25.9746C58.7562 24.3504 50.19 24.404 42.5003 24.6353C34.4508 24.8774 21.6357 24.7011 16.4443 32.4278C11.7912 39.3534 21.476 46.3477 25.5761 50.4478C33.3195 58.1913 41.499 63.7794 52.7279 64.6934C60.7291 65.3447 59.7898 57.0943 59.7898 51.1784C59.7898 39.5256 61.1034 27.0909 58.0244 15.747C55.4178 6.14396 51.7664 2.06134 42.7438 8.07635C35.6034 12.8366 26.67 19.5978 24.2368 28.288C18.0056 50.5421 48.9079 45.5711 61.3118 42.9598C69.3918 41.2587 76.3683 34.4703 70.6262 26.0964C65.8126 19.0765 57.9839 16.8429 49.7449 16.8429C40.0496 16.8429 23.9764 21.4246 20.584 31.9407C16.8218 43.6038 19.0153 61.5449 24.4803 72.2423C29.6317 82.3259 46.108 71.5353 53.2149 69.3202C64.0845 65.9323 73.3383 55.5872 77.6881 45.334C86.5319 24.488 48.7763 25.6197 37.7518 27.6792C31.3167 28.8814 27.4597 36.9077 32.0292 42.4119C37.6735 49.2106 43.0848 51.1152 51.6321 50.6913C64.6584 50.0454 83.1168 43.5856 86.2111 28.9577C88.7543 16.9352 72.2589 17.8169 64.7819 17.8169C53.2989 17.8169 34.5318 21.7543 30.3246 34.3759C27.5551 42.6844 31.2652 45.6986 37.8736 50.2043C45.7854 55.5988 53.9075 59.6928 63.9296 59.2752C75.8828 58.7772 74.0909 45.7387 69.1043 38.1504C58.9648 22.7208 30.9846 38.7746 32.4554 54.9528C33.5809 67.3339 53.1965 50.4608 54.0673 43.3859C55.8595 28.8235 38.6966 28.9956 28.2547 30.1144C18.8111 31.1262 9.94928 35.3871 11.8175 45.5775C12.7439 50.6304 19.7735 53.5985 24.3585 52.3959C33.0638 50.1126 35.7832 39.6958 35.6819 31.6972C35.3963 9.12908 -10.3173 43.1583 11.087 56.7792C17.9173 61.1257 30.8009 62.9801 38.7259 64.1455C47.0768 65.3736 46.6401 53.8593 46.6401 48.5606C46.6401 39.866 45.1711 36.6329 35.3775 37.7851C22.8077 39.2639 14.0038 48.1066 16.5661 61.2842C19.7392 77.6031 63.4097 57.0217 66.73 47.2821C74.3704 24.8702 43.3213 18.6224 36.8386 38.8809C34.7907 45.2807 31.6388 56.9248 38.5432 61.5277C44.2359 65.3229 51.7448 65.3787 56.8068 60.6145C67.0797 50.946 59.2291 27.4537 45.5443 41.4987C42.1761 44.9555 29.0297 68.9653 43.0482 65.8501C52.4216 63.7671 67.3726 47.6471 68.4955 37.5416C69.0224 32.7995 63.7392 30.8054 59.5463 30.9667C48.644 31.386 43.3356 42.5496 41.648 51.7871C40.9214 55.7647 39.1059 62.9346 44.692 62.7453C52.366 62.4851 59.0558 52.733 63.0773 47.1604C65.3465 44.0159 74.4426 31.1556 66.243 28.7751C57.4211 26.2139 49.2923 30.995 46.0313 39.3679C44.6515 42.9107 40.2897 57.3806 45.666 59.4578C52.1034 61.945 56.6727 58.7891 61.7379 55.0746C67.5819 50.789 72.1036 33.1338 61.4944 32.1234C55.9218 31.5926 51.7968 36.3693 48.7099 40.5246C45.1594 45.3042 35.1552 56.8271 39.0911 63.2932C48.5598 78.8489 64.2034 46.2777 70.2609 40.2202C78.4884 31.9928 71.1091 36.4787 66.9735 41.5596C63.7272 45.5478 61.8901 49.3844 59.7898 53.9788C59.3274 54.9903 57.2704 62.4909 58.3287 61.7712C62.2064 59.1344 65.4342 52.0653 67.4605 48.0127C68.8247 45.2843 68.5156 40.3827 70.5045 38.3939C71.5336 37.3648 62.1249 61.1268 58.9375 59.2143C58.1424 58.7373 68.3388 44.2382 71.235 44.2382C74.4128 44.2382 66.048 57.4856 65.2689 58.8491C64.3873 60.3919 61.2891 59.3556 60.9465 57.8141C60.1819 54.3731 60.9886 49.1776 63.1382 46.4907C65.47 43.5759 69.0892 42.4964 71.235 39.1244C72.5791 37.0122 72.1624 33.8998 73.4875 31.5146C75.687 27.5555 77.5435 25.267 80.6103 22.2002C81.4569 21.3536 64.0821 22.9518 60.6421 24.3918C46.4939 30.3143 34.108 41.3429 18.8794 44.9687C14.3203 46.0543 0.325292 50.6913 12.6698 50.6913C13.479 50.6913 27.5263 51.2525 21.8625 53.4309C19.0542 54.511 9.84358 53.9788 12.8525 53.9788C17.0381 53.9788 20.9771 52.883 25.1499 52.883C33.5856 52.883 32.3945 62.935 32.3945 68.7723C32.3945 72.5966 25.4918 76.4619 24.7847 71.5118C23.8848 65.2131 58.2653 57.022 33.7338 73.7034C32.9698 74.2229 28.9158 75.2797 30.2029 74.5557C33.1579 72.8935 35.1819 69.4485 37.8736 67.3721C41.892 64.2722 45.7421 60.9618 49.684 57.7532C57.5688 51.3354 60.5574 40.0765 67.3388 32.4278C67.9302 31.7607 76.972 20.2687 77.3229 26.5834C77.3563 27.1852 77.3486 32.2611 79.271 30.7232C82.196 28.3831 82.516 21.0288 79.5145 19.765C73.3429 17.1665 67.0115 29.8709 71.8438 29.8709C74.5301 29.8709 80.1795 25.4876 75.1312 25.4876" stroke="#E1D778" stroke-width="10" stroke-linecap="round"/>
<path d="M71.1844 40.7088C71.1844 40.5848 71.1844 40.4439 71.1788 40.2804C71.1731 39.8238 71.1619 39.3108 71.1506 38.7639C71.1055 37.1911 71.0266 35.624 70.9025 34.147C70.7334 32.1119 70.4854 30.4151 70.1471 29.141C69.7902 27.8115 69.0906 26.5989 68.1181 25.6245C67.1457 24.65 65.9345 23.9479 64.6057 23.5883C63.0103 23.1599 59.8872 22.8949 55.4901 22.7314C53.3987 22.6525 51.1607 22.6018 48.9227 22.5736C48.1391 22.5623 47.4119 22.5567 46.7579 22.551H45.1006C44.4466 22.5567 43.7194 22.5623 42.9358 22.5736C40.6978 22.6018 38.4598 22.6525 36.3684 22.7314C31.9713 22.9005 28.8425 23.1655 27.2528 23.5883C25.9235 23.947 24.7119 24.6489 23.7393 25.6234C22.7667 26.598 22.0674 27.811 21.7113 29.141C21.3675 30.4151 21.1251 32.1119 20.9559 34.147C20.8319 35.624 20.753 37.1911 20.7079 38.7639C20.691 39.3108 20.6853 39.8238 20.6797 40.2804C20.6797 40.4439 20.6741 40.5848 20.6741 40.7088V41.0245C20.6741 41.1485 20.6741 41.2895 20.6797 41.4529C20.6853 41.9096 20.6966 42.4226 20.7079 42.9694C20.753 44.5422 20.8319 46.1094 20.9559 47.5863C21.1251 49.6214 21.3731 51.3182 21.7113 52.5923C22.4329 55.2925 24.5525 57.4235 27.2528 58.145C28.8425 58.5735 31.9713 58.8384 36.3684 59.0019C38.4598 59.0808 40.6978 59.1316 42.9358 59.1597C43.7194 59.171 44.4466 59.1767 45.1006 59.1823H46.7579C47.4119 59.1767 48.1391 59.171 48.9227 59.1597C51.1607 59.1316 53.3987 59.0808 55.4901 59.0019C59.8872 58.8328 63.0159 58.5678 64.6057 58.145C67.3059 57.4235 69.4256 55.2982 70.1471 52.5923C70.491 51.3182 70.7334 49.6214 70.9025 47.5863C71.0266 46.1094 71.1055 44.5422 71.1506 42.9694C71.1675 42.4226 71.1731 41.9096 71.1788 41.4529C71.1788 41.2895 71.1844 41.1485 71.1844 41.0245V40.7088ZM67.1255 41.002C67.1255 41.1203 67.1255 41.25 67.1199 41.4022C67.1143 41.8419 67.103 42.3267 67.0917 42.851C67.0523 44.3505 66.9733 45.85 66.855 47.2425C66.7027 49.0577 66.4885 50.5459 66.2236 51.5437C65.8741 52.846 64.8481 53.8776 63.5515 54.2215C62.3676 54.5371 59.3855 54.7908 55.3323 54.943C53.2803 55.022 51.0705 55.0727 48.8663 55.1009C48.094 55.1122 47.378 55.1178 46.7354 55.1178H45.1231L42.9922 55.1009C40.788 55.0727 38.5838 55.022 36.5262 54.943C32.473 54.7852 29.4852 54.5371 28.307 54.2215C27.0104 53.8719 25.9844 52.846 25.6349 51.5437C25.37 50.5459 25.1557 49.0577 25.0035 47.2425C24.8851 45.85 24.8119 44.3505 24.7668 42.851C24.7499 42.3267 24.7442 41.8363 24.7386 41.4022C24.7386 41.25 24.7329 41.1147 24.7329 41.002V40.7314C24.7329 40.613 24.7329 40.4833 24.7386 40.3311C24.7442 39.8914 24.7555 39.4066 24.7668 38.8823C24.8062 37.3828 24.8851 35.8833 25.0035 34.4909C25.1557 32.6756 25.37 31.1874 25.6349 30.1896C25.9844 28.8874 27.0104 27.8557 28.307 27.5119C29.4908 27.1962 32.473 26.9425 36.5262 26.7903C38.5782 26.7114 40.788 26.6606 42.9922 26.6324C43.7645 26.6212 44.4805 26.6155 45.1231 26.6155H46.7354L48.8663 26.6324C51.0705 26.6606 53.2747 26.7114 55.3323 26.7903C59.3855 26.9481 62.3733 27.1962 63.5515 27.5119C64.8481 27.8614 65.8741 28.8874 66.2236 30.1896C66.4885 31.1874 66.7027 32.6756 66.855 34.4909C66.9733 35.8833 67.0466 37.3828 67.0917 38.8823C67.1086 39.4066 67.1143 39.897 67.1199 40.3311C67.1199 40.4833 67.1255 40.6186 67.1255 40.7314V41.002ZM40.912 48.4207L53.9906 40.8103L40.912 33.3127V48.4207Z" fill="black"/>
</svg>
